<mxfile host="Electron" agent="Mozilla/5.0 (Windows NT 10.0; Win64; x64) AppleWebKit/537.36 (KHTML, like Gecko) draw.io/24.7.17 Chrome/128.0.6613.36 Electron/32.0.1 Safari/537.36" version="24.7.17" pages="14">
  <diagram id="-eWoNesNv4HymUTN18Dt" name="template ">
    <mxGraphModel dx="1290" dy="621" grid="1" gridSize="10" guides="1" tooltips="1" connect="1" arrows="1" fold="1" page="1" pageScale="1" pageWidth="850" pageHeight="1100" math="0" shadow="0">
      <root>
        <mxCell id="0" />
        <mxCell id="1" parent="0" />
        <mxCell id="ig53EgSZqaDGmhLfLkl3-1" value="Week 4 Templates" style="shape=note;whiteSpace=wrap;html=1;backgroundOutline=1;darkOpacity=0.05;fontFamily=Helvetica;fontSize=20;fontColor=default;labelBackgroundColor=default;" vertex="1" parent="1">
          <mxGeometry x="40" y="30" width="410" height="70" as="geometry" />
        </mxCell>
        <mxCell id="ig53EgSZqaDGmhLfLkl3-2" value="" style="ellipse;html=1;shape=startState;fillColor=#000000;strokeColor=#ff0000;" vertex="1" parent="1">
          <mxGeometry x="150" y="130" width="30" height="30" as="geometry" />
        </mxCell>
        <mxCell id="ig53EgSZqaDGmhLfLkl3-3" value="" style="edgeStyle=orthogonalEdgeStyle;html=1;verticalAlign=bottom;endArrow=open;endSize=8;strokeColor=#ff0000;rounded=0;" edge="1" parent="1" source="ig53EgSZqaDGmhLfLkl3-2">
          <mxGeometry relative="1" as="geometry">
            <mxPoint x="165" y="200" as="targetPoint" />
          </mxGeometry>
        </mxCell>
        <mxCell id="ig53EgSZqaDGmhLfLkl3-4" value="" style="edgeStyle=orthogonalEdgeStyle;html=1;verticalAlign=bottom;endArrow=open;endSize=8;strokeColor=#ff0000;rounded=0;exitX=0.5;exitY=1;exitDx=0;exitDy=0;" edge="1" parent="1" source="ig53EgSZqaDGmhLfLkl3-33">
          <mxGeometry relative="1" as="geometry">
            <mxPoint x="152.36" y="345" as="targetPoint" />
            <mxPoint x="152.30666666666673" y="295" as="sourcePoint" />
          </mxGeometry>
        </mxCell>
        <mxCell id="ig53EgSZqaDGmhLfLkl3-5" value="[ no ]" style="edgeStyle=orthogonalEdgeStyle;html=1;align=left;verticalAlign=bottom;endArrow=open;endSize=8;strokeColor=#ff0000;rounded=0;exitX=1;exitY=0.5;exitDx=0;exitDy=0;" edge="1" parent="1" source="ig53EgSZqaDGmhLfLkl3-32">
          <mxGeometry x="-1" relative="1" as="geometry">
            <mxPoint x="250" y="510" as="targetPoint" />
            <mxPoint x="204.72000000000003" y="462" as="sourcePoint" />
            <mxPoint as="offset" />
          </mxGeometry>
        </mxCell>
        <mxCell id="ig53EgSZqaDGmhLfLkl3-6" value="&amp;nbsp;[ yes ]" style="edgeStyle=orthogonalEdgeStyle;html=1;align=left;verticalAlign=top;endArrow=open;endSize=8;strokeColor=#ff0000;rounded=0;exitX=0;exitY=0.5;exitDx=0;exitDy=0;" edge="1" parent="1" source="ig53EgSZqaDGmhLfLkl3-32">
          <mxGeometry x="-0.1915" y="-20" relative="1" as="geometry">
            <mxPoint x="74.72" y="512" as="targetPoint" />
            <mxPoint x="124.72000000000003" y="462" as="sourcePoint" />
            <mxPoint as="offset" />
          </mxGeometry>
        </mxCell>
        <mxCell id="ig53EgSZqaDGmhLfLkl3-7" value="" style="ellipse;html=1;shape=endState;fillColor=#000000;strokeColor=#ff0000;" vertex="1" parent="1">
          <mxGeometry x="149.72" y="670" width="30" height="30" as="geometry" />
        </mxCell>
        <mxCell id="ig53EgSZqaDGmhLfLkl3-8" value="" style="edgeStyle=orthogonalEdgeStyle;html=1;align=left;verticalAlign=bottom;endArrow=none;endSize=8;strokeColor=#ff0000;rounded=0;startArrow=open;startFill=0;endFill=0;exitX=1;exitY=0.5;exitDx=0;exitDy=0;" edge="1" parent="1" source="ig53EgSZqaDGmhLfLkl3-41">
          <mxGeometry x="-1" relative="1" as="geometry">
            <mxPoint x="259.72" y="560" as="targetPoint" />
            <mxPoint as="offset" />
            <mxPoint x="204.97000000000003" y="610" as="sourcePoint" />
          </mxGeometry>
        </mxCell>
        <mxCell id="ig53EgSZqaDGmhLfLkl3-9" value="" style="edgeStyle=orthogonalEdgeStyle;html=1;align=left;verticalAlign=top;endArrow=none;endSize=8;strokeColor=#ff0000;rounded=0;startArrow=open;startFill=0;endFill=0;exitX=0;exitY=0.5;exitDx=0;exitDy=0;" edge="1" parent="1" source="ig53EgSZqaDGmhLfLkl3-41">
          <mxGeometry x="-0.1956" y="-20" relative="1" as="geometry">
            <mxPoint x="69.72" y="560" as="targetPoint" />
            <mxPoint as="offset" />
            <mxPoint x="125" y="610" as="sourcePoint" />
          </mxGeometry>
        </mxCell>
        <mxCell id="ig53EgSZqaDGmhLfLkl3-10" value="Initial Node" style="shape=note2;boundedLbl=1;whiteSpace=wrap;html=1;size=25;verticalAlign=top;align=center;fontFamily=Helvetica;fontSize=14;fontColor=default;labelBackgroundColor=default;shadow=1;" vertex="1" parent="1">
          <mxGeometry x="300" y="130" width="120" height="60" as="geometry" />
        </mxCell>
        <mxCell id="ig53EgSZqaDGmhLfLkl3-11" value="Action" style="shape=note2;boundedLbl=1;whiteSpace=wrap;html=1;size=25;verticalAlign=top;align=center;fontFamily=Helvetica;fontSize=14;fontColor=default;labelBackgroundColor=default;shadow=1;" vertex="1" parent="1">
          <mxGeometry x="287.64" y="255" width="120" height="60" as="geometry" />
        </mxCell>
        <mxCell id="ig53EgSZqaDGmhLfLkl3-12" value="Decision" style="shape=note2;boundedLbl=1;whiteSpace=wrap;html=1;size=25;verticalAlign=top;align=center;fontFamily=Helvetica;fontSize=14;fontColor=default;labelBackgroundColor=default;shadow=1;" vertex="1" parent="1">
          <mxGeometry x="300" y="442" width="120" height="60" as="geometry" />
        </mxCell>
        <mxCell id="ig53EgSZqaDGmhLfLkl3-13" value="Merge" style="shape=note2;boundedLbl=1;whiteSpace=wrap;html=1;size=25;verticalAlign=top;align=center;fontFamily=Helvetica;fontSize=14;fontColor=default;labelBackgroundColor=default;shadow=1;" vertex="1" parent="1">
          <mxGeometry x="300" y="560" width="120" height="60" as="geometry" />
        </mxCell>
        <mxCell id="ig53EgSZqaDGmhLfLkl3-14" value="Final Node" style="shape=note2;boundedLbl=1;whiteSpace=wrap;html=1;size=25;verticalAlign=top;align=center;fontFamily=Helvetica;fontSize=14;fontColor=default;labelBackgroundColor=default;shadow=1;" vertex="1" parent="1">
          <mxGeometry x="300" y="660" width="120" height="60" as="geometry" />
        </mxCell>
        <mxCell id="ig53EgSZqaDGmhLfLkl3-15" style="edgeStyle=orthogonalEdgeStyle;shape=connector;rounded=0;orthogonalLoop=1;jettySize=auto;html=1;strokeColor=default;align=center;verticalAlign=middle;fontFamily=Helvetica;fontSize=11;fontColor=default;labelBackgroundColor=default;endArrow=open;endFill=0;exitX=0.233;exitY=0.176;exitDx=0;exitDy=0;exitPerimeter=0;" edge="1" parent="1" source="ig53EgSZqaDGmhLfLkl3-17">
          <mxGeometry relative="1" as="geometry">
            <mxPoint x="821" y="150" as="targetPoint" />
          </mxGeometry>
        </mxCell>
        <mxCell id="ig53EgSZqaDGmhLfLkl3-16" style="edgeStyle=orthogonalEdgeStyle;shape=connector;rounded=0;orthogonalLoop=1;jettySize=auto;html=1;strokeColor=default;align=center;verticalAlign=middle;fontFamily=Helvetica;fontSize=11;fontColor=default;labelBackgroundColor=default;endArrow=open;endFill=0;exitX=1.567;exitY=0.916;exitDx=0;exitDy=0;exitPerimeter=0;" edge="1" parent="1" source="ig53EgSZqaDGmhLfLkl3-17">
          <mxGeometry relative="1" as="geometry">
            <mxPoint x="688" y="150" as="targetPoint" />
          </mxGeometry>
        </mxCell>
        <mxCell id="ig53EgSZqaDGmhLfLkl3-17" value="" style="html=1;points=[];perimeter=orthogonalPerimeter;fillColor=strokeColor;fontFamily=Helvetica;fontSize=11;fontColor=default;labelBackgroundColor=default;rotation=90;" vertex="1" parent="1">
          <mxGeometry x="760" y="-50" width="5" height="180" as="geometry" />
        </mxCell>
        <mxCell id="ig53EgSZqaDGmhLfLkl3-18" value="" style="shape=collate;html=1;fontFamily=Helvetica;fontSize=11;fontColor=default;labelBackgroundColor=default;" vertex="1" parent="1">
          <mxGeometry x="743.23" y="325" width="40" height="40" as="geometry" />
        </mxCell>
        <mxCell id="ig53EgSZqaDGmhLfLkl3-19" value="Fork" style="shape=note2;boundedLbl=1;whiteSpace=wrap;html=1;size=25;verticalAlign=top;align=center;fontFamily=Helvetica;fontSize=14;fontColor=default;labelBackgroundColor=default;shadow=1;" vertex="1" parent="1">
          <mxGeometry x="870" y="65" width="120" height="60" as="geometry" />
        </mxCell>
        <mxCell id="ig53EgSZqaDGmhLfLkl3-20" value="Join" style="shape=note2;boundedLbl=1;whiteSpace=wrap;html=1;size=25;verticalAlign=top;align=center;fontFamily=Helvetica;fontSize=14;fontColor=default;labelBackgroundColor=default;shadow=1;" vertex="1" parent="1">
          <mxGeometry x="870" y="196.89" width="120" height="60" as="geometry" />
        </mxCell>
        <mxCell id="ig53EgSZqaDGmhLfLkl3-21" style="edgeStyle=orthogonalEdgeStyle;shape=connector;rounded=0;orthogonalLoop=1;jettySize=auto;html=1;strokeColor=default;align=center;verticalAlign=middle;fontFamily=Helvetica;fontSize=11;fontColor=default;labelBackgroundColor=default;endArrow=none;endFill=0;exitX=0.233;exitY=0.176;exitDx=0;exitDy=0;exitPerimeter=0;startArrow=open;startFill=0;" edge="1" parent="1" source="ig53EgSZqaDGmhLfLkl3-23">
          <mxGeometry relative="1" as="geometry">
            <mxPoint x="811.73" y="190" as="targetPoint" />
          </mxGeometry>
        </mxCell>
        <mxCell id="ig53EgSZqaDGmhLfLkl3-22" style="edgeStyle=orthogonalEdgeStyle;shape=connector;rounded=0;orthogonalLoop=1;jettySize=auto;html=1;strokeColor=default;align=center;verticalAlign=middle;fontFamily=Helvetica;fontSize=11;fontColor=default;labelBackgroundColor=default;endArrow=none;endFill=0;exitX=-0.433;exitY=0.91;exitDx=0;exitDy=0;exitPerimeter=0;startArrow=open;startFill=0;" edge="1" parent="1" source="ig53EgSZqaDGmhLfLkl3-23">
          <mxGeometry relative="1" as="geometry">
            <mxPoint x="702.73" y="190" as="targetPoint" />
          </mxGeometry>
        </mxCell>
        <mxCell id="ig53EgSZqaDGmhLfLkl3-23" value="" style="html=1;points=[];perimeter=orthogonalPerimeter;fillColor=strokeColor;fontFamily=Helvetica;fontSize=11;fontColor=default;labelBackgroundColor=default;rotation=90;" vertex="1" parent="1">
          <mxGeometry x="761.98" y="196.8857142857143" width="2.5" height="148.1142857142857" as="geometry" />
        </mxCell>
        <mxCell id="ig53EgSZqaDGmhLfLkl3-24" value="Time Event" style="shape=note2;boundedLbl=1;whiteSpace=wrap;html=1;size=25;verticalAlign=top;align=center;fontFamily=Helvetica;fontSize=14;fontColor=default;labelBackgroundColor=default;shadow=1;" vertex="1" parent="1">
          <mxGeometry x="870" y="320" width="120" height="60" as="geometry" />
        </mxCell>
        <mxCell id="ig53EgSZqaDGmhLfLkl3-25" value="Action1" style="shape=mxgraph.uml25.action;html=1;align=center;verticalAlign=middle;absoluteArcSize=1;arcSize=10;dashed=0;spacingLeft=10;flipH=1;whiteSpace=wrap;fontFamily=Helvetica;fontSize=11;fontColor=default;labelBackgroundColor=default;" vertex="1" parent="1">
          <mxGeometry x="700" y="450" width="110" height="40" as="geometry" />
        </mxCell>
        <mxCell id="ig53EgSZqaDGmhLfLkl3-26" value="value1" style="text;verticalAlign=middle;align=right;html=1;fontFamily=Helvetica;fontSize=11;fontColor=default;labelBackgroundColor=default;" vertex="1" parent="ig53EgSZqaDGmhLfLkl3-25">
          <mxGeometry x="-60" width="60" height="40" as="geometry" />
        </mxCell>
        <mxCell id="ig53EgSZqaDGmhLfLkl3-27" value="Action1" style="shape=mxgraph.uml25.action;html=1;align=center;verticalAlign=middle;absoluteArcSize=1;arcSize=10;dashed=0;spacingRight=10;whiteSpace=wrap;fontFamily=Helvetica;fontSize=11;fontColor=default;labelBackgroundColor=default;" vertex="1" parent="1">
          <mxGeometry x="700" y="540" width="110" height="40" as="geometry" />
        </mxCell>
        <mxCell id="ig53EgSZqaDGmhLfLkl3-28" value="variable1" style="text;verticalAlign=middle;align=left;html=1;fontFamily=Helvetica;fontSize=11;fontColor=default;labelBackgroundColor=default;" vertex="1" parent="ig53EgSZqaDGmhLfLkl3-27">
          <mxGeometry x="110" width="60" height="30" as="geometry" />
        </mxCell>
        <mxCell id="ig53EgSZqaDGmhLfLkl3-29" value="Action with Input" style="shape=note2;boundedLbl=1;whiteSpace=wrap;html=1;size=25;verticalAlign=top;align=center;fontFamily=Helvetica;fontSize=14;fontColor=default;labelBackgroundColor=default;shadow=1;" vertex="1" parent="1">
          <mxGeometry x="870" y="440" width="120" height="60" as="geometry" />
        </mxCell>
        <mxCell id="ig53EgSZqaDGmhLfLkl3-30" value="Action with Output" style="shape=note2;boundedLbl=1;whiteSpace=wrap;html=1;size=25;verticalAlign=top;align=center;fontFamily=Helvetica;fontSize=14;fontColor=default;labelBackgroundColor=default;shadow=1;" vertex="1" parent="1">
          <mxGeometry x="870" y="530" width="120" height="60" as="geometry" />
        </mxCell>
        <mxCell id="ig53EgSZqaDGmhLfLkl3-31" value="SendObjectAction1" style="html=1;shape=mxgraph.infographic.ribbonSimple;notch1=0;notch2=20;align=center;verticalAlign=middle;fontSize=14;fontStyle=0;fillColor=#FFFFFF;whiteSpace=wrap;fontFamily=Helvetica;fontColor=default;labelBackgroundColor=default;" vertex="1" parent="1">
          <mxGeometry x="682.5" y="640" width="160" height="40" as="geometry" />
        </mxCell>
        <mxCell id="ig53EgSZqaDGmhLfLkl3-32" value="" style="rhombus;fontFamily=Helvetica;fontSize=11;fontColor=default;labelBackgroundColor=default;" vertex="1" parent="1">
          <mxGeometry x="150" y="442" width="30" height="30" as="geometry" />
        </mxCell>
        <mxCell id="ig53EgSZqaDGmhLfLkl3-33" value="Action1" style="html=1;align=center;verticalAlign=top;rounded=1;absoluteArcSize=1;arcSize=10;dashed=0;whiteSpace=wrap;fontFamily=Helvetica;fontSize=11;fontColor=default;labelBackgroundColor=default;" vertex="1" parent="1">
          <mxGeometry x="82.36" y="255" width="140" height="40" as="geometry" />
        </mxCell>
        <mxCell id="ig53EgSZqaDGmhLfLkl3-34" value="Send Signal" style="shape=note2;boundedLbl=1;whiteSpace=wrap;html=1;size=25;verticalAlign=top;align=center;fontFamily=Helvetica;fontSize=14;fontColor=default;labelBackgroundColor=default;shadow=1;" vertex="1" parent="1">
          <mxGeometry x="870" y="640" width="120" height="60" as="geometry" />
        </mxCell>
        <mxCell id="ig53EgSZqaDGmhLfLkl3-35" value="AcceptEventAction1" style="html=1;shape=mxgraph.infographic.ribbonSimple;notch1=20;notch2=0;align=center;verticalAlign=middle;fontSize=14;fontStyle=0;fillColor=#FFFFFF;flipH=0;spacingRight=0;spacingLeft=14;whiteSpace=wrap;fontFamily=Helvetica;fontColor=default;labelBackgroundColor=default;" vertex="1" parent="1">
          <mxGeometry x="670" y="740" width="170" height="40" as="geometry" />
        </mxCell>
        <mxCell id="ig53EgSZqaDGmhLfLkl3-36" value="Receive Signal" style="shape=note2;boundedLbl=1;whiteSpace=wrap;html=1;size=25;verticalAlign=top;align=center;fontFamily=Helvetica;fontSize=14;fontColor=default;labelBackgroundColor=default;shadow=1;" vertex="1" parent="1">
          <mxGeometry x="870" y="740" width="120" height="60" as="geometry" />
        </mxCell>
        <mxCell id="ig53EgSZqaDGmhLfLkl3-37" value="" style="shape=mxgraph.lean_mapping.electronic_info_flow_edge;html=1;rounded=0;strokeColor=default;align=center;verticalAlign=middle;fontFamily=Helvetica;fontSize=11;fontColor=default;labelBackgroundColor=default;edgeStyle=orthogonalEdgeStyle;endArrow=open;endFill=0;" edge="1" parent="1">
          <mxGeometry width="160" relative="1" as="geometry">
            <mxPoint x="683.23" y="870" as="sourcePoint" />
            <mxPoint x="843.23" y="870" as="targetPoint" />
            <Array as="points">
              <mxPoint x="683.23" y="890" />
              <mxPoint x="843.23" y="890" />
            </Array>
          </mxGeometry>
        </mxCell>
        <mxCell id="ig53EgSZqaDGmhLfLkl3-38" value="Interupt Activity" style="shape=note2;boundedLbl=1;whiteSpace=wrap;html=1;size=25;verticalAlign=top;align=center;fontFamily=Helvetica;fontSize=14;fontColor=default;labelBackgroundColor=default;shadow=1;" vertex="1" parent="1">
          <mxGeometry x="870" y="850" width="120" height="60" as="geometry" />
        </mxCell>
        <mxCell id="ig53EgSZqaDGmhLfLkl3-39" value="" style="shape=sumEllipse;perimeter=ellipsePerimeter;html=1;backgroundOutline=1;fontFamily=Helvetica;fontSize=11;fontColor=default;labelBackgroundColor=default;" vertex="1" parent="1">
          <mxGeometry x="748.23" y="950" width="30" height="30" as="geometry" />
        </mxCell>
        <mxCell id="ig53EgSZqaDGmhLfLkl3-40" value="End Flow" style="shape=note2;boundedLbl=1;whiteSpace=wrap;html=1;size=25;verticalAlign=top;align=center;fontFamily=Helvetica;fontSize=14;fontColor=default;labelBackgroundColor=default;shadow=1;" vertex="1" parent="1">
          <mxGeometry x="870" y="940" width="120" height="60" as="geometry" />
        </mxCell>
        <mxCell id="ig53EgSZqaDGmhLfLkl3-41" value="" style="rhombus;fontFamily=Helvetica;fontSize=11;fontColor=default;labelBackgroundColor=default;" vertex="1" parent="1">
          <mxGeometry x="149.72" y="590" width="30" height="30" as="geometry" />
        </mxCell>
      </root>
    </mxGraphModel>
  </diagram>
  <diagram name="Sign Up " id="QqgV9S8x0pamI0SzPm8E">
    <mxGraphModel dx="1433" dy="690" grid="1" gridSize="10" guides="1" tooltips="1" connect="1" arrows="1" fold="1" page="1" pageScale="1" pageWidth="850" pageHeight="1100" math="0" shadow="0">
      <root>
        <mxCell id="0" />
        <mxCell id="1" parent="0" />
        <mxCell id="d-6rySkYnPF_2BSO1hpO-1" value="" style="ellipse;html=1;shape=startState;fillColor=#000000;strokeColor=#ff0000;" vertex="1" parent="1">
          <mxGeometry x="395" y="120" width="30" height="30" as="geometry" />
        </mxCell>
        <mxCell id="d-6rySkYnPF_2BSO1hpO-2" value="" style="edgeStyle=orthogonalEdgeStyle;html=1;verticalAlign=bottom;endArrow=open;endSize=8;strokeColor=#ff0000;rounded=0;" edge="1" parent="1" source="d-6rySkYnPF_2BSO1hpO-1">
          <mxGeometry relative="1" as="geometry">
            <mxPoint x="410" y="200" as="targetPoint" />
          </mxGeometry>
        </mxCell>
        <mxCell id="d-6rySkYnPF_2BSO1hpO-3" value="Sign Up For Membership" style="shape=note2;boundedLbl=1;whiteSpace=wrap;html=1;size=25;verticalAlign=top;align=center;" vertex="1" parent="1">
          <mxGeometry x="160" y="90" width="120" height="60" as="geometry" />
        </mxCell>
        <mxCell id="oAeY_02KgjEqV5Ez1mPH-1" value="" style="edgeStyle=orthogonalEdgeStyle;html=1;verticalAlign=bottom;endArrow=open;endSize=8;strokeColor=#ff0000;rounded=0;exitX=0.5;exitY=1;exitDx=0;exitDy=0;" edge="1" parent="1" source="oAeY_02KgjEqV5Ez1mPH-2">
          <mxGeometry relative="1" as="geometry">
            <mxPoint x="410" y="290" as="targetPoint" />
            <mxPoint x="409.9466666666667" y="240" as="sourcePoint" />
          </mxGeometry>
        </mxCell>
        <mxCell id="oAeY_02KgjEqV5Ez1mPH-2" value="User Selects Sign Up For Membership" style="html=1;align=center;verticalAlign=top;rounded=1;absoluteArcSize=1;arcSize=10;dashed=0;whiteSpace=wrap;fontFamily=Helvetica;fontSize=11;fontColor=default;labelBackgroundColor=default;" vertex="1" parent="1">
          <mxGeometry x="340" y="200" width="140" height="40" as="geometry" />
        </mxCell>
        <mxCell id="oAeY_02KgjEqV5Ez1mPH-3" value="System prompts user to input person account details." style="html=1;align=center;verticalAlign=top;rounded=1;absoluteArcSize=1;arcSize=10;dashed=0;whiteSpace=wrap;fontFamily=Helvetica;fontSize=11;fontColor=default;labelBackgroundColor=default;" vertex="1" parent="1">
          <mxGeometry x="340" y="290" width="140" height="50" as="geometry" />
        </mxCell>
        <mxCell id="EhJYgdxpM0fvCTFSc2g4-1" value="User submits information to form" style="shape=mxgraph.uml25.action;html=1;align=center;verticalAlign=middle;absoluteArcSize=1;arcSize=10;dashed=0;spacingLeft=10;flipH=1;whiteSpace=wrap;fontFamily=Helvetica;fontSize=11;fontColor=default;labelBackgroundColor=default;" vertex="1" parent="1">
          <mxGeometry x="350" y="390" width="110" height="40" as="geometry" />
        </mxCell>
        <mxCell id="EhJYgdxpM0fvCTFSc2g4-2" value="Personal Account Details" style="text;verticalAlign=middle;align=right;html=1;fontFamily=Helvetica;fontSize=11;fontColor=default;labelBackgroundColor=default;" vertex="1" parent="EhJYgdxpM0fvCTFSc2g4-1">
          <mxGeometry x="-60" width="60" height="40" as="geometry" />
        </mxCell>
        <mxCell id="EhJYgdxpM0fvCTFSc2g4-4" value="" style="edgeStyle=orthogonalEdgeStyle;html=1;verticalAlign=bottom;endArrow=open;endSize=8;strokeColor=#ff0000;rounded=0;" edge="1" parent="1">
          <mxGeometry relative="1" as="geometry">
            <mxPoint x="404.5" y="390" as="targetPoint" />
            <mxPoint x="404.5" y="340" as="sourcePoint" />
          </mxGeometry>
        </mxCell>
        <mxCell id="8ATo7LkGtJSPfrYSjJpL-1" value="The information provided is not valid or &#39;already in use&#39;" style="edgeStyle=orthogonalEdgeStyle;html=1;align=left;verticalAlign=bottom;endArrow=open;endSize=8;strokeColor=#ff0000;rounded=0;exitX=1;exitY=0.5;exitDx=0;exitDy=0;" edge="1" parent="1" source="8ATo7LkGtJSPfrYSjJpL-3">
          <mxGeometry x="-1" relative="1" as="geometry">
            <mxPoint x="499.76" y="550" as="targetPoint" />
            <mxPoint x="439.76" y="500" as="sourcePoint" />
            <mxPoint as="offset" />
          </mxGeometry>
        </mxCell>
        <mxCell id="8ATo7LkGtJSPfrYSjJpL-2" value="The information provided is valid." style="edgeStyle=orthogonalEdgeStyle;html=1;align=left;verticalAlign=top;endArrow=open;endSize=8;strokeColor=#ff0000;rounded=0;exitX=0;exitY=0.5;exitDx=0;exitDy=0;" edge="1" parent="1" source="8ATo7LkGtJSPfrYSjJpL-3">
          <mxGeometry x="0.1521" y="-113" relative="1" as="geometry">
            <mxPoint x="309.76" y="550" as="targetPoint" />
            <mxPoint x="359.76" y="500" as="sourcePoint" />
            <mxPoint x="3" y="-24" as="offset" />
          </mxGeometry>
        </mxCell>
        <mxCell id="8ATo7LkGtJSPfrYSjJpL-3" value="" style="rhombus;fontFamily=Helvetica;fontSize=11;fontColor=default;labelBackgroundColor=default;" vertex="1" parent="1">
          <mxGeometry x="385.03999999999996" y="480" width="30" height="30" as="geometry" />
        </mxCell>
        <mxCell id="8ATo7LkGtJSPfrYSjJpL-4" value="" style="edgeStyle=orthogonalEdgeStyle;html=1;verticalAlign=bottom;endArrow=open;endSize=8;strokeColor=#ff0000;rounded=0;" edge="1" parent="1">
          <mxGeometry relative="1" as="geometry">
            <mxPoint x="399.54" y="480" as="targetPoint" />
            <mxPoint x="399.54" y="430" as="sourcePoint" />
          </mxGeometry>
        </mxCell>
        <mxCell id="8ATo7LkGtJSPfrYSjJpL-5" value="System generates unique membership ID and assigns to users new account.&lt;div&gt;&lt;br&gt;&lt;/div&gt;" style="html=1;align=center;verticalAlign=top;rounded=1;absoluteArcSize=1;arcSize=10;dashed=0;whiteSpace=wrap;fontFamily=Helvetica;fontSize=11;fontColor=default;labelBackgroundColor=default;" vertex="1" parent="1">
          <mxGeometry x="220" y="550" width="160" height="60" as="geometry" />
        </mxCell>
        <mxCell id="8ATo7LkGtJSPfrYSjJpL-6" value="Notify user process failed and to try again, and redirected to home page." style="html=1;align=center;verticalAlign=top;rounded=1;absoluteArcSize=1;arcSize=10;dashed=0;whiteSpace=wrap;fontFamily=Helvetica;fontSize=11;fontColor=default;labelBackgroundColor=default;" vertex="1" parent="1">
          <mxGeometry x="440" y="550" width="145" height="50" as="geometry" />
        </mxCell>
        <mxCell id="ONVgm3grLmpk93GYkpYi-1" value="" style="edgeStyle=orthogonalEdgeStyle;html=1;align=left;verticalAlign=bottom;endArrow=none;endSize=8;strokeColor=#ff0000;rounded=0;startArrow=open;startFill=0;endFill=0;exitX=1;exitY=0.5;exitDx=0;exitDy=0;entryX=0.4;entryY=0.936;entryDx=0;entryDy=0;entryPerimeter=0;" edge="1" parent="1" source="hkoX9W7kXPfB9Shg8IGR-1" target="8ATo7LkGtJSPfrYSjJpL-6">
          <mxGeometry x="-1" relative="1" as="geometry">
            <mxPoint x="499.76" y="610" as="targetPoint" />
            <mxPoint as="offset" />
            <mxPoint x="420.03999999999996" y="655" as="sourcePoint" />
          </mxGeometry>
        </mxCell>
        <mxCell id="ONVgm3grLmpk93GYkpYi-2" value="" style="edgeStyle=orthogonalEdgeStyle;html=1;align=left;verticalAlign=top;endArrow=none;endSize=8;strokeColor=#ff0000;rounded=0;startArrow=open;startFill=0;endFill=0;exitX=0;exitY=0.5;exitDx=0;exitDy=0;" edge="1" parent="1">
          <mxGeometry x="-0.1956" y="-20" relative="1" as="geometry">
            <mxPoint x="309.76" y="610" as="targetPoint" />
            <mxPoint as="offset" />
            <mxPoint x="390.03999999999996" y="655" as="sourcePoint" />
          </mxGeometry>
        </mxCell>
        <mxCell id="hkoX9W7kXPfB9Shg8IGR-1" value="" style="ellipse;html=1;shape=endState;fillColor=#000000;strokeColor=#ff0000;" vertex="1" parent="1">
          <mxGeometry x="390" y="640" width="30" height="30" as="geometry" />
        </mxCell>
      </root>
    </mxGraphModel>
  </diagram>
  <diagram id="K08cR--ZRS0HH3JuLWcB" name="Media Check Out ">
    <mxGraphModel dx="1985" dy="955" grid="1" gridSize="10" guides="1" tooltips="1" connect="1" arrows="1" fold="1" page="1" pageScale="1" pageWidth="850" pageHeight="1100" math="0" shadow="0">
      <root>
        <mxCell id="0" />
        <mxCell id="1" parent="0" />
        <mxCell id="2R9r_CAe25SUYPNmJSvr-1" value="" style="edgeStyle=orthogonalEdgeStyle;html=1;verticalAlign=bottom;endArrow=open;endSize=8;strokeColor=#ff0000;rounded=0;" edge="1" parent="1">
          <mxGeometry relative="1" as="geometry">
            <mxPoint x="415" y="180" as="targetPoint" />
            <mxPoint x="415" y="140" as="sourcePoint" />
          </mxGeometry>
        </mxCell>
        <mxCell id="9cBUHPzCvHQyRVLOgqtC-1" value="" style="ellipse;html=1;shape=startState;fillColor=#000000;strokeColor=#ff0000;" vertex="1" parent="1">
          <mxGeometry x="400" y="110" width="30" height="30" as="geometry" />
        </mxCell>
        <mxCell id="Zqy7SdiIGJuv5M1fbQ8d-1" value="Check Out Media" style="shape=note2;boundedLbl=1;whiteSpace=wrap;html=1;size=25;verticalAlign=top;align=center;" vertex="1" parent="1">
          <mxGeometry x="90" y="50" width="120" height="60" as="geometry" />
        </mxCell>
        <mxCell id="6P96FoQiGuP13w_HKe5H-1" value="" style="edgeStyle=orthogonalEdgeStyle;html=1;verticalAlign=bottom;endArrow=open;endSize=8;strokeColor=#ff0000;rounded=0;exitX=0.5;exitY=1;exitDx=0;exitDy=0;" edge="1" parent="1" source="6P96FoQiGuP13w_HKe5H-2">
          <mxGeometry relative="1" as="geometry">
            <mxPoint x="415" y="270" as="targetPoint" />
            <mxPoint x="414.9466666666667" y="220" as="sourcePoint" />
          </mxGeometry>
        </mxCell>
        <mxCell id="6P96FoQiGuP13w_HKe5H-2" value="User Selects Check Out Media Icon in Catalog" style="html=1;align=center;verticalAlign=top;rounded=1;absoluteArcSize=1;arcSize=10;dashed=0;whiteSpace=wrap;fontFamily=Helvetica;fontSize=11;fontColor=default;labelBackgroundColor=default;" vertex="1" parent="1">
          <mxGeometry x="345" y="180" width="140" height="40" as="geometry" />
        </mxCell>
        <mxCell id="6P96FoQiGuP13w_HKe5H-3" value="User Picks Item From Catalog to Check Out" style="html=1;align=center;verticalAlign=top;rounded=1;absoluteArcSize=1;arcSize=10;dashed=0;whiteSpace=wrap;fontFamily=Helvetica;fontSize=11;fontColor=default;labelBackgroundColor=default;" vertex="1" parent="1">
          <mxGeometry x="345" y="270" width="140" height="40" as="geometry" />
        </mxCell>
        <mxCell id="iBpBddX6c4ZLQSkBsOnx-1" value="Users account has a hold and can not check out any media.&amp;nbsp;" style="edgeStyle=orthogonalEdgeStyle;html=1;align=left;verticalAlign=bottom;endArrow=open;endSize=8;strokeColor=#ff0000;rounded=0;exitX=1;exitY=0.5;exitDx=0;exitDy=0;" edge="1" parent="1" source="iBpBddX6c4ZLQSkBsOnx-3">
          <mxGeometry x="-1" relative="1" as="geometry">
            <mxPoint x="509.76" y="430" as="targetPoint" />
            <mxPoint x="449.76" y="380" as="sourcePoint" />
            <mxPoint as="offset" />
          </mxGeometry>
        </mxCell>
        <mxCell id="iBpBddX6c4ZLQSkBsOnx-2" value="User has valid account, and can check out media." style="edgeStyle=orthogonalEdgeStyle;html=1;align=left;verticalAlign=top;endArrow=open;endSize=8;strokeColor=#ff0000;rounded=0;exitX=0;exitY=0.5;exitDx=0;exitDy=0;" edge="1" parent="1" source="iBpBddX6c4ZLQSkBsOnx-3">
          <mxGeometry x="0.1833" y="-182" relative="1" as="geometry">
            <mxPoint x="319.76" y="430" as="targetPoint" />
            <mxPoint x="369.76" y="380" as="sourcePoint" />
            <mxPoint x="2" y="-24" as="offset" />
          </mxGeometry>
        </mxCell>
        <mxCell id="iBpBddX6c4ZLQSkBsOnx-3" value="" style="rhombus;fontFamily=Helvetica;fontSize=11;fontColor=default;labelBackgroundColor=default;" vertex="1" parent="1">
          <mxGeometry x="399.99999999999994" y="360" width="30" height="30" as="geometry" />
        </mxCell>
        <mxCell id="iBpBddX6c4ZLQSkBsOnx-4" value="" style="edgeStyle=orthogonalEdgeStyle;html=1;verticalAlign=bottom;endArrow=open;endSize=8;strokeColor=#ff0000;rounded=0;exitX=0.5;exitY=1;exitDx=0;exitDy=0;" edge="1" parent="1">
          <mxGeometry relative="1" as="geometry">
            <mxPoint x="414.5" y="360" as="targetPoint" />
            <mxPoint x="414.5" y="310" as="sourcePoint" />
          </mxGeometry>
        </mxCell>
        <mxCell id="iBpBddX6c4ZLQSkBsOnx-5" value="System Checks Item Availibility" style="html=1;align=center;verticalAlign=top;rounded=1;absoluteArcSize=1;arcSize=10;dashed=0;whiteSpace=wrap;fontFamily=Helvetica;fontSize=11;fontColor=default;labelBackgroundColor=default;" vertex="1" parent="1">
          <mxGeometry x="260" y="430" width="140" height="50" as="geometry" />
        </mxCell>
        <mxCell id="iBpBddX6c4ZLQSkBsOnx-7" value="User Is Infomred of account issue and redirected back to catalog page." style="html=1;align=center;verticalAlign=top;rounded=1;absoluteArcSize=1;arcSize=10;dashed=0;whiteSpace=wrap;fontFamily=Helvetica;fontSize=11;fontColor=default;labelBackgroundColor=default;" vertex="1" parent="1">
          <mxGeometry x="440" y="430" width="140" height="50" as="geometry" />
        </mxCell>
        <mxCell id="iBpBddX6c4ZLQSkBsOnx-8" value="" style="edgeStyle=orthogonalEdgeStyle;html=1;verticalAlign=bottom;endArrow=open;endSize=8;strokeColor=#ff0000;rounded=0;exitX=1;exitY=0.5;exitDx=0;exitDy=0;entryX=1;entryY=0.5;entryDx=0;entryDy=0;" edge="1" parent="1" source="iBpBddX6c4ZLQSkBsOnx-7" target="9cBUHPzCvHQyRVLOgqtC-1">
          <mxGeometry relative="1" as="geometry">
            <mxPoint x="630" y="520" as="targetPoint" />
            <mxPoint x="630" y="470" as="sourcePoint" />
            <Array as="points">
              <mxPoint x="730" y="465" />
              <mxPoint x="730" y="125" />
            </Array>
          </mxGeometry>
        </mxCell>
        <mxCell id="azaf7nh-QQjDikQxQGBO-1" value="Item selcted can not be checked out.&amp;nbsp;" style="edgeStyle=orthogonalEdgeStyle;html=1;align=left;verticalAlign=bottom;endArrow=open;endSize=8;strokeColor=#ff0000;rounded=0;exitX=1;exitY=0.5;exitDx=0;exitDy=0;" edge="1" parent="1" source="azaf7nh-QQjDikQxQGBO-3">
          <mxGeometry x="-1" y="235" relative="1" as="geometry">
            <mxPoint x="410" y="600" as="targetPoint" />
            <mxPoint x="350" y="550" as="sourcePoint" />
            <mxPoint x="-235" y="230" as="offset" />
          </mxGeometry>
        </mxCell>
        <mxCell id="azaf7nh-QQjDikQxQGBO-2" value="Item selcted is available to check out&amp;nbsp;" style="edgeStyle=orthogonalEdgeStyle;html=1;align=left;verticalAlign=top;endArrow=open;endSize=8;strokeColor=#ff0000;rounded=0;exitX=0;exitY=0.5;exitDx=0;exitDy=0;" edge="1" parent="1" source="azaf7nh-QQjDikQxQGBO-3">
          <mxGeometry x="-1" y="-51" relative="1" as="geometry">
            <mxPoint x="220" y="600" as="targetPoint" />
            <mxPoint x="270" y="550" as="sourcePoint" />
            <mxPoint x="45" y="26" as="offset" />
          </mxGeometry>
        </mxCell>
        <mxCell id="azaf7nh-QQjDikQxQGBO-3" value="" style="rhombus;fontFamily=Helvetica;fontSize=11;fontColor=default;labelBackgroundColor=default;" vertex="1" parent="1">
          <mxGeometry x="295.28" y="530" width="30" height="30" as="geometry" />
        </mxCell>
        <mxCell id="azaf7nh-QQjDikQxQGBO-4" value="" style="edgeStyle=orthogonalEdgeStyle;html=1;verticalAlign=bottom;endArrow=open;endSize=8;strokeColor=#ff0000;rounded=0;exitX=0.5;exitY=1;exitDx=0;exitDy=0;" edge="1" parent="1">
          <mxGeometry relative="1" as="geometry">
            <mxPoint x="310" y="530" as="targetPoint" />
            <mxPoint x="310" y="480" as="sourcePoint" />
          </mxGeometry>
        </mxCell>
        <mxCell id="azaf7nh-QQjDikQxQGBO-5" value="User is informed of problem and redirected back to catalog.&amp;nbsp;" style="html=1;align=center;verticalAlign=top;rounded=1;absoluteArcSize=1;arcSize=10;dashed=0;whiteSpace=wrap;fontFamily=Helvetica;fontSize=11;fontColor=default;labelBackgroundColor=default;" vertex="1" parent="1">
          <mxGeometry x="155.28" y="600" width="140" height="50" as="geometry" />
        </mxCell>
        <mxCell id="azaf7nh-QQjDikQxQGBO-6" value="" style="edgeStyle=orthogonalEdgeStyle;html=1;verticalAlign=bottom;endArrow=open;endSize=8;strokeColor=#ff0000;rounded=0;entryX=0;entryY=0.5;entryDx=0;entryDy=0;" edge="1" parent="1" target="6P96FoQiGuP13w_HKe5H-3">
          <mxGeometry relative="1" as="geometry">
            <mxPoint x="100" y="650" as="targetPoint" />
            <mxPoint x="150" y="630" as="sourcePoint" />
            <Array as="points">
              <mxPoint x="150" y="631" />
              <mxPoint x="80" y="631" />
              <mxPoint x="80" y="290" />
            </Array>
          </mxGeometry>
        </mxCell>
        <mxCell id="DF3riHxVY-3yfnlwd3e7-1" value="&lt;span style=&quot;font-size: 11px;&quot;&gt;Update the inventory database to reflect the&lt;/span&gt;&lt;div&gt;&lt;span style=&quot;font-size: 11px;&quot;&gt;&amp;nbsp;new checked-out item&#39;s status.&lt;/span&gt;&lt;/div&gt;" style="html=1;shape=mxgraph.infographic.ribbonSimple;notch1=0;notch2=20;align=center;verticalAlign=middle;fontSize=14;fontStyle=0;fillColor=#FFFFFF;whiteSpace=wrap;fontFamily=Helvetica;fontColor=default;labelBackgroundColor=default;" vertex="1" parent="1">
          <mxGeometry x="325.28" y="600" width="240" height="50" as="geometry" />
        </mxCell>
        <mxCell id="6Q7Sbd0jAXfFnFFU6-M7-1" value="Upload to database is unsucsessful.&amp;nbsp;" style="edgeStyle=orthogonalEdgeStyle;html=1;align=left;verticalAlign=bottom;endArrow=open;endSize=8;strokeColor=#ff0000;rounded=0;exitX=1;exitY=0.5;exitDx=0;exitDy=0;" edge="1" parent="1" source="6Q7Sbd0jAXfFnFFU6-M7-3">
          <mxGeometry x="-0.8629" y="15" relative="1" as="geometry">
            <mxPoint x="502.39" y="748" as="targetPoint" />
            <mxPoint x="457.11" y="700" as="sourcePoint" />
            <mxPoint as="offset" />
          </mxGeometry>
        </mxCell>
        <mxCell id="6Q7Sbd0jAXfFnFFU6-M7-2" value="Upload to database is sucsessful." style="edgeStyle=orthogonalEdgeStyle;html=1;align=left;verticalAlign=top;endArrow=open;endSize=8;strokeColor=#ff0000;rounded=0;exitX=0;exitY=0.5;exitDx=0;exitDy=0;" edge="1" parent="1" source="6Q7Sbd0jAXfFnFFU6-M7-3">
          <mxGeometry x="-0.0242" y="-120" relative="1" as="geometry">
            <mxPoint x="327.11" y="750" as="targetPoint" />
            <mxPoint x="377.11" y="700" as="sourcePoint" />
            <mxPoint x="2" y="-24" as="offset" />
          </mxGeometry>
        </mxCell>
        <mxCell id="6Q7Sbd0jAXfFnFFU6-M7-5" value="" style="edgeStyle=orthogonalEdgeStyle;html=1;verticalAlign=bottom;endArrow=open;endSize=8;strokeColor=#ff0000;rounded=0;exitX=0.5;exitY=1;exitDx=0;exitDy=0;" edge="1" parent="1" target="6Q7Sbd0jAXfFnFFU6-M7-3">
          <mxGeometry relative="1" as="geometry">
            <mxPoint x="400" y="680" as="targetPoint" />
            <mxPoint x="400" y="650" as="sourcePoint" />
          </mxGeometry>
        </mxCell>
        <mxCell id="6Q7Sbd0jAXfFnFFU6-M7-3" value="" style="rhombus;fontFamily=Helvetica;fontSize=11;fontColor=default;labelBackgroundColor=default;" vertex="1" parent="1">
          <mxGeometry x="380" y="680" width="30" height="30" as="geometry" />
        </mxCell>
        <mxCell id="6Q7Sbd0jAXfFnFFU6-M7-6" value="System prompts user of error and inorms them to try process again." style="html=1;align=center;verticalAlign=top;rounded=1;absoluteArcSize=1;arcSize=10;dashed=0;whiteSpace=wrap;fontFamily=Helvetica;fontSize=11;fontColor=default;labelBackgroundColor=default;" vertex="1" parent="1">
          <mxGeometry x="440" y="750" width="140" height="50" as="geometry" />
        </mxCell>
        <mxCell id="AqOmtv7NKpSQRwgMv9uQ-1" value="System assigns due date to rental and linked account" style="html=1;shape=mxgraph.infographic.ribbonSimple;notch1=20;notch2=0;align=center;verticalAlign=middle;fontSize=14;fontStyle=0;fillColor=#FFFFFF;flipH=0;spacingRight=0;spacingLeft=14;whiteSpace=wrap;fontFamily=Helvetica;fontColor=default;labelBackgroundColor=default;" vertex="1" parent="1">
          <mxGeometry x="190" y="750" width="210" height="40" as="geometry" />
        </mxCell>
        <mxCell id="AqOmtv7NKpSQRwgMv9uQ-2" value="" style="edgeStyle=orthogonalEdgeStyle;html=1;verticalAlign=bottom;endArrow=open;endSize=8;strokeColor=#ff0000;rounded=0;exitX=0.5;exitY=1;exitDx=0;exitDy=0;" edge="1" parent="1">
          <mxGeometry relative="1" as="geometry">
            <mxPoint x="324.28" y="840" as="targetPoint" />
            <mxPoint x="324.28" y="790" as="sourcePoint" />
          </mxGeometry>
        </mxCell>
        <mxCell id="AqOmtv7NKpSQRwgMv9uQ-3" value="" style="edgeStyle=orthogonalEdgeStyle;html=1;verticalAlign=bottom;endArrow=open;endSize=8;strokeColor=#ff0000;rounded=0;exitX=0.5;exitY=1;exitDx=0;exitDy=0;entryX=1;entryY=1;entryDx=0;entryDy=0;" edge="1" parent="1" target="3aQZF3di_bEIiiar6xgQ-1">
          <mxGeometry relative="1" as="geometry">
            <mxPoint x="440" y="960" as="targetPoint" />
            <mxPoint x="500" y="800" as="sourcePoint" />
            <Array as="points">
              <mxPoint x="500" y="801" />
              <mxPoint x="520" y="801" />
              <mxPoint x="520" y="966" />
            </Array>
          </mxGeometry>
        </mxCell>
        <mxCell id="AqOmtv7NKpSQRwgMv9uQ-4" value="Confirm checkout, show details and rental ID number" style="html=1;align=center;verticalAlign=top;rounded=1;absoluteArcSize=1;arcSize=10;dashed=0;whiteSpace=wrap;fontFamily=Helvetica;fontSize=11;fontColor=default;labelBackgroundColor=default;" vertex="1" parent="1">
          <mxGeometry x="260" y="840" width="140" height="50" as="geometry" />
        </mxCell>
        <mxCell id="3aQZF3di_bEIiiar6xgQ-1" value="" style="ellipse;html=1;shape=endState;fillColor=#000000;strokeColor=#ff0000;" vertex="1" parent="1">
          <mxGeometry x="395" y="940" width="30" height="30" as="geometry" />
        </mxCell>
        <mxCell id="3aQZF3di_bEIiiar6xgQ-3" value="" style="edgeStyle=orthogonalEdgeStyle;html=1;verticalAlign=bottom;endArrow=open;endSize=8;strokeColor=#ff0000;rounded=0;exitX=0.5;exitY=1;exitDx=0;exitDy=0;entryX=0;entryY=0.5;entryDx=0;entryDy=0;" edge="1" parent="1" target="3aQZF3di_bEIiiar6xgQ-1">
          <mxGeometry relative="1" as="geometry">
            <mxPoint x="324.28" y="940" as="targetPoint" />
            <mxPoint x="324.28" y="890" as="sourcePoint" />
          </mxGeometry>
        </mxCell>
      </root>
    </mxGraphModel>
  </diagram>
  <diagram id="7982Czkuawu3jX1xCq6e" name="Reserve Media ">
    <mxGraphModel dx="1843" dy="887" grid="1" gridSize="10" guides="1" tooltips="1" connect="1" arrows="1" fold="1" page="1" pageScale="1" pageWidth="850" pageHeight="1100" math="0" shadow="0">
      <root>
        <mxCell id="0" />
        <mxCell id="1" parent="0" />
        <mxCell id="-JSVEwsh1MCvRhI7hd6k-1" value="" style="ellipse;html=1;shape=startState;fillColor=#000000;strokeColor=#ff0000;" vertex="1" parent="1">
          <mxGeometry x="410" y="50" width="30" height="30" as="geometry" />
        </mxCell>
        <mxCell id="6oBlnVvDT5oOiNbBkhMz-1" value="" style="edgeStyle=orthogonalEdgeStyle;html=1;verticalAlign=bottom;endArrow=open;endSize=8;strokeColor=#ff0000;rounded=0;exitX=0.5;exitY=1;exitDx=0;exitDy=0;" edge="1" parent="1" source="-JSVEwsh1MCvRhI7hd6k-1">
          <mxGeometry relative="1" as="geometry">
            <mxPoint x="425" y="130" as="targetPoint" />
            <mxPoint x="425" y="90" as="sourcePoint" />
          </mxGeometry>
        </mxCell>
        <mxCell id="D-x8dhY9O9fvNQQtv3Db-1" value="Reserve Media&amp;nbsp;" style="shape=note2;boundedLbl=1;whiteSpace=wrap;html=1;size=25;verticalAlign=top;align=center;" vertex="1" parent="1">
          <mxGeometry x="90" y="50" width="120" height="60" as="geometry" />
        </mxCell>
        <mxCell id="4XmtkE7FdrYQfHlJ3FIv-1" value="User Selects Reserve Media in Catalog" style="html=1;align=center;verticalAlign=top;rounded=1;absoluteArcSize=1;arcSize=10;dashed=0;whiteSpace=wrap;fontFamily=Helvetica;fontSize=11;fontColor=default;labelBackgroundColor=default;" vertex="1" parent="1">
          <mxGeometry x="355" y="130" width="140" height="40" as="geometry" />
        </mxCell>
        <mxCell id="4XmtkE7FdrYQfHlJ3FIv-2" value="" style="edgeStyle=orthogonalEdgeStyle;html=1;verticalAlign=bottom;endArrow=open;endSize=8;strokeColor=#ff0000;rounded=0;exitX=0.5;exitY=1;exitDx=0;exitDy=0;" edge="1" parent="1">
          <mxGeometry relative="1" as="geometry">
            <mxPoint x="424" y="220" as="targetPoint" />
            <mxPoint x="424" y="170" as="sourcePoint" />
          </mxGeometry>
        </mxCell>
        <mxCell id="j5YAE0roWx2F5LBfd2YE-1" value="User Picks Item to Reserve from Catalog&amp;nbsp;" style="html=1;align=center;verticalAlign=top;rounded=1;absoluteArcSize=1;arcSize=10;dashed=0;whiteSpace=wrap;fontFamily=Helvetica;fontSize=11;fontColor=default;labelBackgroundColor=default;" vertex="1" parent="1">
          <mxGeometry x="355" y="220" width="140" height="40" as="geometry" />
        </mxCell>
        <mxCell id="3nFdGv9DP4oRgoBiWCkf-1" value="" style="edgeStyle=orthogonalEdgeStyle;html=1;verticalAlign=bottom;endArrow=open;endSize=8;strokeColor=#ff0000;rounded=0;exitX=0.5;exitY=1;exitDx=0;exitDy=0;" edge="1" parent="1">
          <mxGeometry relative="1" as="geometry">
            <mxPoint x="425" y="310" as="targetPoint" />
            <mxPoint x="425" y="260" as="sourcePoint" />
          </mxGeometry>
        </mxCell>
        <mxCell id="nQwQJy1kmiaL5xgefesk-1" value="Item is not available to reserve." style="edgeStyle=orthogonalEdgeStyle;html=1;align=left;verticalAlign=bottom;endArrow=open;endSize=8;strokeColor=#ff0000;rounded=0;exitX=1;exitY=0.5;exitDx=0;exitDy=0;" edge="1" parent="1" source="nQwQJy1kmiaL5xgefesk-3">
          <mxGeometry x="-1" relative="1" as="geometry">
            <mxPoint x="512.28" y="378" as="targetPoint" />
            <mxPoint x="467" y="330" as="sourcePoint" />
            <mxPoint as="offset" />
          </mxGeometry>
        </mxCell>
        <mxCell id="nQwQJy1kmiaL5xgefesk-2" value="Item is available for reservation." style="edgeStyle=orthogonalEdgeStyle;html=1;align=left;verticalAlign=top;endArrow=open;endSize=8;strokeColor=#ff0000;rounded=0;exitX=0;exitY=0.5;exitDx=0;exitDy=0;" edge="1" parent="1" source="nQwQJy1kmiaL5xgefesk-3">
          <mxGeometry x="0.1524" y="-91" relative="1" as="geometry">
            <mxPoint x="337" y="380" as="targetPoint" />
            <mxPoint x="387" y="330" as="sourcePoint" />
            <mxPoint x="3" y="-24" as="offset" />
          </mxGeometry>
        </mxCell>
        <mxCell id="nQwQJy1kmiaL5xgefesk-3" value="" style="rhombus;fontFamily=Helvetica;fontSize=11;fontColor=default;labelBackgroundColor=default;" vertex="1" parent="1">
          <mxGeometry x="412.28" y="310" width="30" height="30" as="geometry" />
        </mxCell>
        <mxCell id="nQwQJy1kmiaL5xgefesk-4" value="Inform user of failure and notify them to attempt again.&amp;nbsp;" style="html=1;align=center;verticalAlign=top;rounded=1;absoluteArcSize=1;arcSize=10;dashed=0;whiteSpace=wrap;fontFamily=Helvetica;fontSize=11;fontColor=default;labelBackgroundColor=default;" vertex="1" parent="1">
          <mxGeometry x="460" y="380" width="140" height="50" as="geometry" />
        </mxCell>
        <mxCell id="nQwQJy1kmiaL5xgefesk-5" value="Prompt user reservation is available.&amp;nbsp;" style="html=1;align=center;verticalAlign=top;rounded=1;absoluteArcSize=1;arcSize=10;dashed=0;whiteSpace=wrap;fontFamily=Helvetica;fontSize=11;fontColor=default;labelBackgroundColor=default;" vertex="1" parent="1">
          <mxGeometry x="270" y="380" width="140" height="50" as="geometry" />
        </mxCell>
        <mxCell id="nQwQJy1kmiaL5xgefesk-6" value="" style="edgeStyle=orthogonalEdgeStyle;html=1;verticalAlign=bottom;endArrow=open;endSize=8;strokeColor=#ff0000;rounded=0;exitX=0.5;exitY=1;exitDx=0;exitDy=0;entryX=1;entryY=0.5;entryDx=0;entryDy=0;" edge="1" parent="1" target="j5YAE0roWx2F5LBfd2YE-1">
          <mxGeometry relative="1" as="geometry">
            <mxPoint x="510" y="480" as="targetPoint" />
            <mxPoint x="510" y="430" as="sourcePoint" />
            <Array as="points">
              <mxPoint x="600" y="430" />
              <mxPoint x="600" y="431" />
              <mxPoint x="640" y="431" />
              <mxPoint x="640" y="240" />
            </Array>
          </mxGeometry>
        </mxCell>
        <mxCell id="GPNp9pODt_hajzEvc29N-1" value="Record reservation onto users wishlist." style="html=1;align=center;verticalAlign=top;rounded=1;absoluteArcSize=1;arcSize=10;dashed=0;whiteSpace=wrap;fontFamily=Helvetica;fontSize=11;fontColor=default;labelBackgroundColor=default;" vertex="1" parent="1">
          <mxGeometry x="272.28" y="480" width="140" height="40" as="geometry" />
        </mxCell>
        <mxCell id="GPNp9pODt_hajzEvc29N-2" value="Schedule Notification to Users Account When Item is Available.&amp;nbsp;" style="html=1;align=center;verticalAlign=top;rounded=1;absoluteArcSize=1;arcSize=10;dashed=0;whiteSpace=wrap;fontFamily=Helvetica;fontSize=11;fontColor=default;labelBackgroundColor=default;" vertex="1" parent="1">
          <mxGeometry x="280" y="570" width="140" height="50" as="geometry" />
        </mxCell>
        <mxCell id="GPNp9pODt_hajzEvc29N-3" value="" style="edgeStyle=orthogonalEdgeStyle;html=1;verticalAlign=bottom;endArrow=open;endSize=8;strokeColor=#ff0000;rounded=0;exitX=0.5;exitY=1;exitDx=0;exitDy=0;" edge="1" parent="1">
          <mxGeometry relative="1" as="geometry">
            <mxPoint x="339.5" y="570" as="targetPoint" />
            <mxPoint x="339.5" y="520" as="sourcePoint" />
            <Array as="points">
              <mxPoint x="339.5" y="560" />
              <mxPoint x="339.5" y="560" />
            </Array>
          </mxGeometry>
        </mxCell>
        <mxCell id="GPNp9pODt_hajzEvc29N-5" value="" style="edgeStyle=orthogonalEdgeStyle;html=1;verticalAlign=bottom;endArrow=open;endSize=8;strokeColor=#ff0000;rounded=0;exitX=0.5;exitY=1;exitDx=0;exitDy=0;" edge="1" parent="1">
          <mxGeometry relative="1" as="geometry">
            <mxPoint x="339.5" y="480" as="targetPoint" />
            <mxPoint x="339.5" y="430" as="sourcePoint" />
            <Array as="points">
              <mxPoint x="339.5" y="470" />
              <mxPoint x="339.5" y="470" />
            </Array>
          </mxGeometry>
        </mxCell>
        <mxCell id="GPNp9pODt_hajzEvc29N-6" value="" style="edgeStyle=orthogonalEdgeStyle;html=1;verticalAlign=bottom;endArrow=open;endSize=8;strokeColor=#ff0000;rounded=0;exitX=0.5;exitY=1;exitDx=0;exitDy=0;" edge="1" parent="1">
          <mxGeometry relative="1" as="geometry">
            <mxPoint x="341.78" y="670" as="targetPoint" />
            <mxPoint x="341.78" y="620" as="sourcePoint" />
            <Array as="points">
              <mxPoint x="341.78" y="660" />
              <mxPoint x="341.78" y="660" />
            </Array>
          </mxGeometry>
        </mxCell>
        <mxCell id="GPNp9pODt_hajzEvc29N-7" value="System Confirms Reservation to User.&amp;nbsp;" style="html=1;align=center;verticalAlign=top;rounded=1;absoluteArcSize=1;arcSize=10;dashed=0;whiteSpace=wrap;fontFamily=Helvetica;fontSize=11;fontColor=default;labelBackgroundColor=default;" vertex="1" parent="1">
          <mxGeometry x="280" y="670" width="140" height="50" as="geometry" />
        </mxCell>
        <mxCell id="GPNp9pODt_hajzEvc29N-8" value="" style="edgeStyle=orthogonalEdgeStyle;html=1;verticalAlign=bottom;endArrow=open;endSize=8;strokeColor=#ff0000;rounded=0;exitX=0.5;exitY=1;exitDx=0;exitDy=0;entryX=0;entryY=0.5;entryDx=0;entryDy=0;" edge="1" parent="1" target="WJD9MDKSsp3GT5RKyTfG-1">
          <mxGeometry relative="1" as="geometry">
            <mxPoint x="341.78" y="770" as="targetPoint" />
            <mxPoint x="341.78" y="720" as="sourcePoint" />
            <Array as="points">
              <mxPoint x="342" y="795" />
            </Array>
          </mxGeometry>
        </mxCell>
        <mxCell id="WJD9MDKSsp3GT5RKyTfG-1" value="" style="ellipse;html=1;shape=endState;fillColor=#000000;strokeColor=#ff0000;" vertex="1" parent="1">
          <mxGeometry x="425" y="780" width="30" height="30" as="geometry" />
        </mxCell>
      </root>
    </mxGraphModel>
  </diagram>
  <diagram id="kBds1ERD2lkvvoAErfN0" name="pay fines">
    <mxGraphModel dx="1720" dy="828" grid="1" gridSize="10" guides="1" tooltips="1" connect="1" arrows="1" fold="1" page="1" pageScale="1" pageWidth="850" pageHeight="1100" math="0" shadow="0">
      <root>
        <mxCell id="0" />
        <mxCell id="1" parent="0" />
        <mxCell id="Ps9uBBr-Y5DAs_-xsJqW-1" value="Pay Fines" style="shape=note2;boundedLbl=1;whiteSpace=wrap;html=1;size=25;verticalAlign=top;align=center;" vertex="1" parent="1">
          <mxGeometry x="90" y="50" width="120" height="60" as="geometry" />
        </mxCell>
        <mxCell id="tpdQAD_JWUv2ZyspDOcl-1" value="" style="ellipse;html=1;shape=startState;fillColor=#000000;strokeColor=#ff0000;" vertex="1" parent="1">
          <mxGeometry x="410" y="50" width="30" height="30" as="geometry" />
        </mxCell>
        <mxCell id="nUQuACQE_gFd1dxYR2-H-1" value="" style="edgeStyle=orthogonalEdgeStyle;html=1;verticalAlign=bottom;endArrow=open;endSize=8;strokeColor=#ff0000;rounded=0;exitX=0.5;exitY=1;exitDx=0;exitDy=0;" edge="1" parent="1">
          <mxGeometry relative="1" as="geometry">
            <mxPoint x="425" y="130" as="targetPoint" />
            <mxPoint x="425" y="80" as="sourcePoint" />
          </mxGeometry>
        </mxCell>
        <mxCell id="b1u89L_Fp64xaUmJNPc_-1" value="User views outstanding fines and payment options.&amp;nbsp;" style="html=1;align=center;verticalAlign=top;rounded=1;absoluteArcSize=1;arcSize=10;dashed=0;whiteSpace=wrap;fontFamily=Helvetica;fontSize=11;fontColor=default;labelBackgroundColor=default;" vertex="1" parent="1">
          <mxGeometry x="355" y="130" width="140" height="40" as="geometry" />
        </mxCell>
        <mxCell id="b1u89L_Fp64xaUmJNPc_-2" value="" style="edgeStyle=orthogonalEdgeStyle;html=1;verticalAlign=bottom;endArrow=open;endSize=8;strokeColor=#ff0000;rounded=0;exitX=0.5;exitY=1;exitDx=0;exitDy=0;" edge="1" parent="1">
          <mxGeometry relative="1" as="geometry">
            <mxPoint x="424" y="220" as="targetPoint" />
            <mxPoint x="424" y="170" as="sourcePoint" />
          </mxGeometry>
        </mxCell>
        <mxCell id="Ypx8RbMSDdLYYw4Uopmv-8" value="" style="edgeStyle=orthogonalEdgeStyle;rounded=0;orthogonalLoop=1;jettySize=auto;html=1;" edge="1" parent="1" source="b1u89L_Fp64xaUmJNPc_-3" target="ynJu6NhVrUl5QcktsXPZ-1">
          <mxGeometry relative="1" as="geometry" />
        </mxCell>
        <mxCell id="b1u89L_Fp64xaUmJNPc_-3" value="System promts user for payments details.&amp;nbsp;" style="html=1;align=center;verticalAlign=top;rounded=1;absoluteArcSize=1;arcSize=10;dashed=0;whiteSpace=wrap;fontFamily=Helvetica;fontSize=11;fontColor=default;labelBackgroundColor=default;" vertex="1" parent="1">
          <mxGeometry x="355" y="220" width="140" height="40" as="geometry" />
        </mxCell>
        <mxCell id="b1u89L_Fp64xaUmJNPc_-5" value="" style="edgeStyle=orthogonalEdgeStyle;html=1;verticalAlign=bottom;endArrow=open;endSize=8;strokeColor=#ff0000;rounded=0;exitX=0.5;exitY=1;exitDx=0;exitDy=0;" edge="1" parent="1">
          <mxGeometry relative="1" as="geometry">
            <mxPoint x="425" y="310" as="targetPoint" />
            <mxPoint x="425" y="260" as="sourcePoint" />
          </mxGeometry>
        </mxCell>
        <mxCell id="ynJu6NhVrUl5QcktsXPZ-1" value="User Provides Payment Info&amp;nbsp; and Submits" style="shape=mxgraph.uml25.action;html=1;align=center;verticalAlign=middle;absoluteArcSize=1;arcSize=10;dashed=0;spacingLeft=10;flipH=1;whiteSpace=wrap;fontFamily=Helvetica;fontSize=11;fontColor=default;labelBackgroundColor=default;" vertex="1" parent="1">
          <mxGeometry x="370" y="310" width="110" height="50" as="geometry" />
        </mxCell>
        <mxCell id="ynJu6NhVrUl5QcktsXPZ-2" value="Payment Info" style="text;verticalAlign=middle;align=right;html=1;fontFamily=Helvetica;fontSize=11;fontColor=default;labelBackgroundColor=default;" vertex="1" parent="ynJu6NhVrUl5QcktsXPZ-1">
          <mxGeometry x="-60" width="60" height="50" as="geometry" />
        </mxCell>
        <mxCell id="ynJu6NhVrUl5QcktsXPZ-3" value="" style="edgeStyle=orthogonalEdgeStyle;html=1;verticalAlign=bottom;endArrow=open;endSize=8;strokeColor=#ff0000;rounded=0;exitX=0.5;exitY=1;exitDx=0;exitDy=0;" edge="1" parent="1">
          <mxGeometry relative="1" as="geometry">
            <mxPoint x="424" y="410" as="targetPoint" />
            <mxPoint x="424" y="360" as="sourcePoint" />
          </mxGeometry>
        </mxCell>
        <mxCell id="Ypx8RbMSDdLYYw4Uopmv-1" value="Payment Process Fails&amp;nbsp;" style="edgeStyle=orthogonalEdgeStyle;html=1;align=left;verticalAlign=bottom;endArrow=open;endSize=8;strokeColor=#ff0000;rounded=0;exitX=1;exitY=0.5;exitDx=0;exitDy=0;" edge="1" parent="1" source="Ypx8RbMSDdLYYw4Uopmv-3">
          <mxGeometry x="-1" relative="1" as="geometry">
            <mxPoint x="505.28" y="468" as="targetPoint" />
            <mxPoint x="460" y="420" as="sourcePoint" />
            <mxPoint as="offset" />
          </mxGeometry>
        </mxCell>
        <mxCell id="Ypx8RbMSDdLYYw4Uopmv-2" value="Payment Process Completes Sucsessfully&amp;nbsp;" style="edgeStyle=orthogonalEdgeStyle;html=1;align=left;verticalAlign=top;endArrow=open;endSize=8;strokeColor=#ff0000;rounded=0;exitX=0;exitY=0.5;exitDx=0;exitDy=0;" edge="1" parent="1" source="Ypx8RbMSDdLYYw4Uopmv-3">
          <mxGeometry x="0.2768" y="-133" relative="1" as="geometry">
            <mxPoint x="330" y="470" as="targetPoint" />
            <mxPoint x="380" y="420" as="sourcePoint" />
            <mxPoint x="2" y="-23" as="offset" />
          </mxGeometry>
        </mxCell>
        <mxCell id="Ypx8RbMSDdLYYw4Uopmv-3" value="" style="rhombus;fontFamily=Helvetica;fontSize=11;fontColor=default;labelBackgroundColor=default;" vertex="1" parent="1">
          <mxGeometry x="410" y="410" width="30" height="30" as="geometry" />
        </mxCell>
        <mxCell id="Ypx8RbMSDdLYYw4Uopmv-4" value="Payment is Processed through thrid party system." style="html=1;align=center;verticalAlign=top;rounded=1;absoluteArcSize=1;arcSize=10;dashed=0;whiteSpace=wrap;fontFamily=Helvetica;fontSize=11;fontColor=default;labelBackgroundColor=default;" vertex="1" parent="1">
          <mxGeometry x="260" y="470" width="140" height="40" as="geometry" />
        </mxCell>
        <mxCell id="Ypx8RbMSDdLYYw4Uopmv-5" value="Payment is Processed through thrid party system." style="html=1;align=center;verticalAlign=top;rounded=1;absoluteArcSize=1;arcSize=10;dashed=0;whiteSpace=wrap;fontFamily=Helvetica;fontSize=11;fontColor=default;labelBackgroundColor=default;" vertex="1" parent="1">
          <mxGeometry x="450" y="470" width="140" height="40" as="geometry" />
        </mxCell>
        <mxCell id="Ypx8RbMSDdLYYw4Uopmv-9" value="" style="edgeStyle=orthogonalEdgeStyle;html=1;verticalAlign=bottom;endArrow=open;endSize=8;strokeColor=#ff0000;rounded=0;exitX=0.5;exitY=1;exitDx=0;exitDy=0;entryX=0.019;entryY=0.54;entryDx=0;entryDy=0;entryPerimeter=0;" edge="1" parent="1" target="ynJu6NhVrUl5QcktsXPZ-1">
          <mxGeometry relative="1" as="geometry">
            <mxPoint x="510" y="560" as="targetPoint" />
            <mxPoint x="510" y="510" as="sourcePoint" />
            <Array as="points">
              <mxPoint x="610" y="511" />
              <mxPoint x="610" y="337" />
            </Array>
          </mxGeometry>
        </mxCell>
        <mxCell id="qwlWHXK21_yuCIttd_V1-1" value="Payment Process is Sucsessful&amp;nbsp;" style="edgeStyle=orthogonalEdgeStyle;html=1;align=left;verticalAlign=bottom;endArrow=open;endSize=8;strokeColor=#ff0000;rounded=0;exitX=1;exitY=0.5;exitDx=0;exitDy=0;" edge="1" parent="1" source="qwlWHXK21_yuCIttd_V1-3">
          <mxGeometry x="-1" relative="1" as="geometry">
            <mxPoint x="399.45" y="628" as="targetPoint" />
            <mxPoint x="354.17" y="580" as="sourcePoint" />
            <mxPoint as="offset" />
          </mxGeometry>
        </mxCell>
        <mxCell id="qwlWHXK21_yuCIttd_V1-2" value="Payment Is Unsucsessful" style="edgeStyle=orthogonalEdgeStyle;html=1;align=left;verticalAlign=top;endArrow=open;endSize=8;strokeColor=#ff0000;rounded=0;exitX=0;exitY=0.5;exitDx=0;exitDy=0;" edge="1" parent="1" source="qwlWHXK21_yuCIttd_V1-3">
          <mxGeometry x="0.152" y="-69" relative="1" as="geometry">
            <mxPoint x="224.17" y="630" as="targetPoint" />
            <mxPoint x="274.17" y="580" as="sourcePoint" />
            <mxPoint x="4" y="-24" as="offset" />
          </mxGeometry>
        </mxCell>
        <mxCell id="qwlWHXK21_yuCIttd_V1-3" value="" style="rhombus;fontFamily=Helvetica;fontSize=11;fontColor=default;labelBackgroundColor=default;" vertex="1" parent="1">
          <mxGeometry x="299.45" y="560" width="30" height="30" as="geometry" />
        </mxCell>
        <mxCell id="qwlWHXK21_yuCIttd_V1-4" value="" style="edgeStyle=orthogonalEdgeStyle;html=1;verticalAlign=bottom;endArrow=open;endSize=8;strokeColor=#ff0000;rounded=0;exitX=0.5;exitY=1;exitDx=0;exitDy=0;entryX=0.5;entryY=0;entryDx=0;entryDy=0;" edge="1" parent="1" target="qwlWHXK21_yuCIttd_V1-3">
          <mxGeometry relative="1" as="geometry">
            <mxPoint x="320" y="560" as="targetPoint" />
            <mxPoint x="320" y="510" as="sourcePoint" />
          </mxGeometry>
        </mxCell>
        <mxCell id="qwlWHXK21_yuCIttd_V1-5" value="Inform User of Payment Failure and Redirect to Home Page" style="html=1;align=center;verticalAlign=top;rounded=1;absoluteArcSize=1;arcSize=10;dashed=0;whiteSpace=wrap;fontFamily=Helvetica;fontSize=11;fontColor=default;labelBackgroundColor=default;" vertex="1" parent="1">
          <mxGeometry x="159.45" y="630" width="140" height="50" as="geometry" />
        </mxCell>
        <mxCell id="qwlWHXK21_yuCIttd_V1-6" value="" style="edgeStyle=orthogonalEdgeStyle;html=1;verticalAlign=bottom;endArrow=open;endSize=8;strokeColor=#ff0000;rounded=0;exitX=0.425;exitY=1.035;exitDx=0;exitDy=0;exitPerimeter=0;entryX=0;entryY=0.5;entryDx=0;entryDy=0;" edge="1" parent="1" source="qwlWHXK21_yuCIttd_V1-5" target="tpdQAD_JWUv2ZyspDOcl-1">
          <mxGeometry relative="1" as="geometry">
            <mxPoint x="160" y="370" as="targetPoint" />
            <mxPoint x="212" y="713" as="sourcePoint" />
            <Array as="points">
              <mxPoint x="219" y="714" />
              <mxPoint x="120" y="714" />
              <mxPoint x="120" y="170" />
              <mxPoint x="270" y="170" />
              <mxPoint x="270" y="65" />
            </Array>
          </mxGeometry>
        </mxCell>
        <mxCell id="qwlWHXK21_yuCIttd_V1-7" value="Update User Account to reflect new Blalace" style="html=1;align=center;verticalAlign=top;rounded=1;absoluteArcSize=1;arcSize=10;dashed=0;whiteSpace=wrap;fontFamily=Helvetica;fontSize=11;fontColor=default;labelBackgroundColor=default;" vertex="1" parent="1">
          <mxGeometry x="340" y="630" width="140" height="40" as="geometry" />
        </mxCell>
        <mxCell id="qwlWHXK21_yuCIttd_V1-8" value="Confirm Payment, Inform User of Balance Change and Sucsess.&amp;nbsp;" style="html=1;align=center;verticalAlign=top;rounded=1;absoluteArcSize=1;arcSize=10;dashed=0;whiteSpace=wrap;fontFamily=Helvetica;fontSize=11;fontColor=default;labelBackgroundColor=default;" vertex="1" parent="1">
          <mxGeometry x="329.45" y="720" width="140" height="50" as="geometry" />
        </mxCell>
        <mxCell id="qwlWHXK21_yuCIttd_V1-9" value="" style="edgeStyle=orthogonalEdgeStyle;html=1;verticalAlign=bottom;endArrow=open;endSize=8;strokeColor=#ff0000;rounded=0;exitX=0.5;exitY=1;exitDx=0;exitDy=0;" edge="1" parent="1">
          <mxGeometry relative="1" as="geometry">
            <mxPoint x="398.89" y="720" as="targetPoint" />
            <mxPoint x="398.89" y="670" as="sourcePoint" />
          </mxGeometry>
        </mxCell>
        <mxCell id="1epB3F4b176cBSiclTUE-1" value="" style="ellipse;html=1;shape=endState;fillColor=#000000;strokeColor=#ff0000;" vertex="1" parent="1">
          <mxGeometry x="384.45" y="820" width="30" height="30" as="geometry" />
        </mxCell>
        <mxCell id="1epB3F4b176cBSiclTUE-2" value="" style="edgeStyle=orthogonalEdgeStyle;html=1;verticalAlign=bottom;endArrow=open;endSize=8;strokeColor=#ff0000;rounded=0;exitX=0.5;exitY=1;exitDx=0;exitDy=0;" edge="1" parent="1">
          <mxGeometry relative="1" as="geometry">
            <mxPoint x="398.89" y="820" as="targetPoint" />
            <mxPoint x="398.89" y="770" as="sourcePoint" />
          </mxGeometry>
        </mxCell>
      </root>
    </mxGraphModel>
  </diagram>
  <diagram id="ao6gHdwGvgfFecdzD102" name="Renew Media ">
    <mxGraphModel dx="1985" dy="955" grid="1" gridSize="10" guides="1" tooltips="1" connect="1" arrows="1" fold="1" page="1" pageScale="1" pageWidth="850" pageHeight="1100" math="0" shadow="0">
      <root>
        <mxCell id="0" />
        <mxCell id="1" parent="0" />
        <mxCell id="xJtgSGaT36Iw9TGE-2sZ-1" value="Renew Media" style="shape=note2;boundedLbl=1;whiteSpace=wrap;html=1;size=25;verticalAlign=top;align=center;" vertex="1" parent="1">
          <mxGeometry x="90" y="50" width="120" height="60" as="geometry" />
        </mxCell>
        <mxCell id="6Upj3ZxnD-pjMwTxabo9-1" value="" style="ellipse;html=1;shape=startState;fillColor=#000000;strokeColor=#ff0000;" vertex="1" parent="1">
          <mxGeometry x="410" y="50" width="30" height="30" as="geometry" />
        </mxCell>
        <mxCell id="6Upj3ZxnD-pjMwTxabo9-2" value="" style="edgeStyle=orthogonalEdgeStyle;html=1;verticalAlign=bottom;endArrow=open;endSize=8;strokeColor=#ff0000;rounded=0;exitX=0.5;exitY=1;exitDx=0;exitDy=0;" edge="1" parent="1">
          <mxGeometry relative="1" as="geometry">
            <mxPoint x="425" y="130" as="targetPoint" />
            <mxPoint x="425" y="80" as="sourcePoint" />
          </mxGeometry>
        </mxCell>
        <mxCell id="5SN0lDfZphtQr3ARKNEE-1" value="User Selects Renew Media in Catalog" style="html=1;align=center;verticalAlign=top;rounded=1;absoluteArcSize=1;arcSize=10;dashed=0;whiteSpace=wrap;fontFamily=Helvetica;fontSize=11;fontColor=default;labelBackgroundColor=default;" vertex="1" parent="1">
          <mxGeometry x="355" y="130" width="140" height="40" as="geometry" />
        </mxCell>
        <mxCell id="jhn7TEQe4uTDAHKGyj9u-2" value="System Verifies Eligability for Renewal" style="html=1;align=center;verticalAlign=top;rounded=1;absoluteArcSize=1;arcSize=10;dashed=0;whiteSpace=wrap;fontFamily=Helvetica;fontSize=11;fontColor=default;labelBackgroundColor=default;" vertex="1" parent="1">
          <mxGeometry x="355" y="310" width="140" height="40" as="geometry" />
        </mxCell>
        <mxCell id="VPF52pf2lzOdFm3z_Aci-1" value="Item Is not Eligable For Renewal&amp;nbsp;" style="edgeStyle=orthogonalEdgeStyle;html=1;align=left;verticalAlign=bottom;endArrow=open;endSize=8;strokeColor=#ff0000;rounded=0;exitX=1;exitY=0.5;exitDx=0;exitDy=0;" edge="1" parent="1" source="VPF52pf2lzOdFm3z_Aci-3">
          <mxGeometry x="-1" relative="1" as="geometry">
            <mxPoint x="512.28" y="458" as="targetPoint" />
            <mxPoint x="467" y="410" as="sourcePoint" />
            <mxPoint as="offset" />
          </mxGeometry>
        </mxCell>
        <mxCell id="VPF52pf2lzOdFm3z_Aci-2" value="Item is Eligable for Renewal&amp;nbsp;" style="edgeStyle=orthogonalEdgeStyle;html=1;align=left;verticalAlign=top;endArrow=open;endSize=8;strokeColor=#ff0000;rounded=0;exitX=0;exitY=0.5;exitDx=0;exitDy=0;" edge="1" parent="1" source="VPF52pf2lzOdFm3z_Aci-3">
          <mxGeometry x="0.1524" y="-72" relative="1" as="geometry">
            <mxPoint x="337" y="460" as="targetPoint" />
            <mxPoint x="387" y="410" as="sourcePoint" />
            <mxPoint x="4" y="-25" as="offset" />
          </mxGeometry>
        </mxCell>
        <mxCell id="VPF52pf2lzOdFm3z_Aci-3" value="" style="rhombus;fontFamily=Helvetica;fontSize=11;fontColor=default;labelBackgroundColor=default;" vertex="1" parent="1">
          <mxGeometry x="412.28" y="390" width="30" height="30" as="geometry" />
        </mxCell>
        <mxCell id="VPF52pf2lzOdFm3z_Aci-5" value="" style="edgeStyle=orthogonalEdgeStyle;html=1;verticalAlign=bottom;endArrow=open;endSize=8;strokeColor=#ff0000;rounded=0;" edge="1" parent="1">
          <mxGeometry relative="1" as="geometry">
            <mxPoint x="426.78" y="390" as="targetPoint" />
            <mxPoint x="427" y="350" as="sourcePoint" />
          </mxGeometry>
        </mxCell>
        <mxCell id="VPF52pf2lzOdFm3z_Aci-6" value="Inform User that Renewal Is not Available, and to try again." style="html=1;align=center;verticalAlign=top;rounded=1;absoluteArcSize=1;arcSize=10;dashed=0;whiteSpace=wrap;fontFamily=Helvetica;fontSize=11;fontColor=default;labelBackgroundColor=default;" vertex="1" parent="1">
          <mxGeometry x="470" y="460" width="140" height="50" as="geometry" />
        </mxCell>
        <mxCell id="VPF52pf2lzOdFm3z_Aci-8" value="" style="edgeStyle=orthogonalEdgeStyle;html=1;verticalAlign=bottom;endArrow=open;endSize=8;strokeColor=#ff0000;rounded=0;entryX=1;entryY=0.5;entryDx=0;entryDy=0;exitX=1;exitY=0.75;exitDx=0;exitDy=0;" edge="1" parent="1" source="VPF52pf2lzOdFm3z_Aci-6" target="5SN0lDfZphtQr3ARKNEE-1">
          <mxGeometry relative="1" as="geometry">
            <mxPoint x="520" y="480" as="targetPoint" />
            <mxPoint x="670" y="510" as="sourcePoint" />
            <Array as="points">
              <mxPoint x="610" y="431" />
              <mxPoint x="680" y="431" />
              <mxPoint x="680" y="150" />
            </Array>
          </mxGeometry>
        </mxCell>
        <mxCell id="VPF52pf2lzOdFm3z_Aci-9" value="user Selects Item from Catalog to Renew" style="html=1;align=center;verticalAlign=top;rounded=1;absoluteArcSize=1;arcSize=10;dashed=0;whiteSpace=wrap;fontFamily=Helvetica;fontSize=11;fontColor=default;labelBackgroundColor=default;" vertex="1" parent="1">
          <mxGeometry x="350" y="220" width="140" height="40" as="geometry" />
        </mxCell>
        <mxCell id="VPF52pf2lzOdFm3z_Aci-10" value="" style="edgeStyle=orthogonalEdgeStyle;html=1;verticalAlign=bottom;endArrow=open;endSize=8;strokeColor=#ff0000;rounded=0;exitX=0.5;exitY=1;exitDx=0;exitDy=0;" edge="1" parent="1">
          <mxGeometry relative="1" as="geometry">
            <mxPoint x="424" y="310" as="targetPoint" />
            <mxPoint x="424" y="260" as="sourcePoint" />
          </mxGeometry>
        </mxCell>
        <mxCell id="VPF52pf2lzOdFm3z_Aci-11" value="" style="edgeStyle=orthogonalEdgeStyle;html=1;verticalAlign=bottom;endArrow=open;endSize=8;strokeColor=#ff0000;rounded=0;exitX=0.5;exitY=1;exitDx=0;exitDy=0;" edge="1" parent="1">
          <mxGeometry relative="1" as="geometry">
            <mxPoint x="424" y="220" as="targetPoint" />
            <mxPoint x="424" y="170" as="sourcePoint" />
          </mxGeometry>
        </mxCell>
        <mxCell id="VPF52pf2lzOdFm3z_Aci-12" value="System automatically updates Item&#39;s due date, and user account due date." style="html=1;align=center;verticalAlign=top;rounded=1;absoluteArcSize=1;arcSize=10;dashed=0;whiteSpace=wrap;fontFamily=Helvetica;fontSize=11;fontColor=default;labelBackgroundColor=default;" vertex="1" parent="1">
          <mxGeometry x="270" y="460" width="140" height="50" as="geometry" />
        </mxCell>
        <mxCell id="VPF52pf2lzOdFm3z_Aci-13" value="" style="edgeStyle=orthogonalEdgeStyle;html=1;verticalAlign=bottom;endArrow=open;endSize=8;strokeColor=#ff0000;rounded=0;exitX=0.5;exitY=1;exitDx=0;exitDy=0;" edge="1" parent="1">
          <mxGeometry relative="1" as="geometry">
            <mxPoint x="330" y="560" as="targetPoint" />
            <mxPoint x="330" y="510" as="sourcePoint" />
          </mxGeometry>
        </mxCell>
        <mxCell id="VPF52pf2lzOdFm3z_Aci-14" value="user Selects Item from Catalog to Renew" style="html=1;align=center;verticalAlign=top;rounded=1;absoluteArcSize=1;arcSize=10;dashed=0;whiteSpace=wrap;fontFamily=Helvetica;fontSize=11;fontColor=default;labelBackgroundColor=default;" vertex="1" parent="1">
          <mxGeometry x="272.28" y="560" width="140" height="40" as="geometry" />
        </mxCell>
        <mxCell id="qCfQY_ye6Xgkv5R8Oqt_-2" value="" style="edgeStyle=orthogonalEdgeStyle;html=1;verticalAlign=bottom;endArrow=open;endSize=8;strokeColor=#ff0000;rounded=0;exitX=0.5;exitY=1;exitDx=0;exitDy=0;" edge="1" parent="1">
          <mxGeometry relative="1" as="geometry">
            <mxPoint x="330" y="650" as="targetPoint" />
            <mxPoint x="330" y="600" as="sourcePoint" />
          </mxGeometry>
        </mxCell>
        <mxCell id="qCfQY_ye6Xgkv5R8Oqt_-3" value="Confirm renewal and updates due date with user account.&amp;nbsp;&amp;nbsp;" style="html=1;align=center;verticalAlign=top;rounded=1;absoluteArcSize=1;arcSize=10;dashed=0;whiteSpace=wrap;fontFamily=Helvetica;fontSize=11;fontColor=default;labelBackgroundColor=default;" vertex="1" parent="1">
          <mxGeometry x="260" y="650" width="140" height="50" as="geometry" />
        </mxCell>
        <mxCell id="qCfQY_ye6Xgkv5R8Oqt_-5" value="" style="edgeStyle=orthogonalEdgeStyle;html=1;verticalAlign=bottom;endArrow=open;endSize=8;strokeColor=#ff0000;rounded=0;exitX=0.5;exitY=1;exitDx=0;exitDy=0;entryX=0;entryY=0.5;entryDx=0;entryDy=0;" edge="1" parent="1" target="BZ6TWz74IslSrtTnaGYS-1">
          <mxGeometry relative="1" as="geometry">
            <mxPoint x="329.5" y="750" as="targetPoint" />
            <mxPoint x="329.5" y="700" as="sourcePoint" />
            <Array as="points">
              <mxPoint x="330" y="775" />
            </Array>
          </mxGeometry>
        </mxCell>
        <mxCell id="BZ6TWz74IslSrtTnaGYS-1" value="" style="ellipse;html=1;shape=endState;fillColor=#000000;strokeColor=#ff0000;" vertex="1" parent="1">
          <mxGeometry x="440" y="760" width="30" height="30" as="geometry" />
        </mxCell>
      </root>
    </mxGraphModel>
  </diagram>
  <diagram id="5Y7pOVPOiXDa61zePt1u" name="View Account Information ">
    <mxGraphModel dx="1122" dy="540" grid="1" gridSize="10" guides="1" tooltips="1" connect="1" arrows="1" fold="1" page="1" pageScale="1" pageWidth="850" pageHeight="1100" math="0" shadow="0">
      <root>
        <mxCell id="0" />
        <mxCell id="1" parent="0" />
        <mxCell id="FLR9DlNcHFaWakOpdXcJ-1" value="View Account Information&amp;nbsp;" style="shape=note2;boundedLbl=1;whiteSpace=wrap;html=1;size=25;verticalAlign=top;align=center;" vertex="1" parent="1">
          <mxGeometry x="110" y="80" width="120" height="60" as="geometry" />
        </mxCell>
        <mxCell id="v9cQCxKQxsYUPoEYQjU_-1" value="" style="ellipse;html=1;shape=startState;fillColor=#000000;strokeColor=#ff0000;" vertex="1" parent="1">
          <mxGeometry x="410" y="50" width="30" height="30" as="geometry" />
        </mxCell>
        <mxCell id="v9cQCxKQxsYUPoEYQjU_-2" value="" style="edgeStyle=orthogonalEdgeStyle;html=1;verticalAlign=bottom;endArrow=open;endSize=8;strokeColor=#ff0000;rounded=0;exitX=0.5;exitY=1;exitDx=0;exitDy=0;" edge="1" parent="1">
          <mxGeometry relative="1" as="geometry">
            <mxPoint x="425" y="130" as="targetPoint" />
            <mxPoint x="425" y="80" as="sourcePoint" />
          </mxGeometry>
        </mxCell>
        <mxCell id="shevOZoA_yyWnXAbpxA0-1" value="User goes to Account Details page." style="html=1;align=center;verticalAlign=top;rounded=1;absoluteArcSize=1;arcSize=10;dashed=0;whiteSpace=wrap;fontFamily=Helvetica;fontSize=11;fontColor=default;labelBackgroundColor=default;" vertex="1" parent="1">
          <mxGeometry x="355" y="130" width="140" height="40" as="geometry" />
        </mxCell>
        <mxCell id="shevOZoA_yyWnXAbpxA0-2" value="" style="edgeStyle=orthogonalEdgeStyle;html=1;verticalAlign=bottom;endArrow=open;endSize=8;strokeColor=#ff0000;rounded=0;exitX=0.5;exitY=1;exitDx=0;exitDy=0;" edge="1" parent="1">
          <mxGeometry relative="1" as="geometry">
            <mxPoint x="425" y="220" as="targetPoint" />
            <mxPoint x="425" y="170" as="sourcePoint" />
          </mxGeometry>
        </mxCell>
        <mxCell id="shevOZoA_yyWnXAbpxA0-3" value="System retrieves user profile data." style="html=1;align=center;verticalAlign=top;rounded=1;absoluteArcSize=1;arcSize=10;dashed=0;whiteSpace=wrap;fontFamily=Helvetica;fontSize=11;fontColor=default;labelBackgroundColor=default;" vertex="1" parent="1">
          <mxGeometry x="355" y="220" width="140" height="40" as="geometry" />
        </mxCell>
        <mxCell id="s6gx7JCad_yu7pi5KGZn-1" value="Profile data can not be retrieved from database." style="edgeStyle=orthogonalEdgeStyle;html=1;align=left;verticalAlign=bottom;endArrow=open;endSize=8;strokeColor=#ff0000;rounded=0;exitX=1;exitY=0.5;exitDx=0;exitDy=0;" edge="1" parent="1" source="s6gx7JCad_yu7pi5KGZn-3">
          <mxGeometry x="-1" relative="1" as="geometry">
            <mxPoint x="505.28" y="368" as="targetPoint" />
            <mxPoint x="460" y="320" as="sourcePoint" />
            <mxPoint as="offset" />
          </mxGeometry>
        </mxCell>
        <mxCell id="s6gx7JCad_yu7pi5KGZn-2" value="Profile data is retrieved sucsessfully" style="edgeStyle=orthogonalEdgeStyle;html=1;align=left;verticalAlign=top;endArrow=open;endSize=8;strokeColor=#ff0000;rounded=0;exitX=0;exitY=0.5;exitDx=0;exitDy=0;" edge="1" parent="1" source="s6gx7JCad_yu7pi5KGZn-3">
          <mxGeometry x="0.2771" y="-104" relative="1" as="geometry">
            <mxPoint x="330" y="370" as="targetPoint" />
            <mxPoint x="380" y="320" as="sourcePoint" />
            <mxPoint x="3" y="-24" as="offset" />
          </mxGeometry>
        </mxCell>
        <mxCell id="s6gx7JCad_yu7pi5KGZn-3" value="" style="rhombus;fontFamily=Helvetica;fontSize=11;fontColor=default;labelBackgroundColor=default;" vertex="1" parent="1">
          <mxGeometry x="410" y="310" width="30" height="30" as="geometry" />
        </mxCell>
        <mxCell id="RMei4SnFyOSk8Rsyp4oy-3" value="" style="edgeStyle=orthogonalEdgeStyle;html=1;verticalAlign=bottom;endArrow=open;endSize=8;strokeColor=#ff0000;rounded=0;exitX=0.5;exitY=1;exitDx=0;exitDy=0;" edge="1" parent="1">
          <mxGeometry relative="1" as="geometry">
            <mxPoint x="424" y="310" as="targetPoint" />
            <mxPoint x="424" y="260" as="sourcePoint" />
          </mxGeometry>
        </mxCell>
        <mxCell id="RMei4SnFyOSk8Rsyp4oy-4" value="System informs user of error and attempts to reload page again." style="html=1;align=center;verticalAlign=top;rounded=1;absoluteArcSize=1;arcSize=10;dashed=0;whiteSpace=wrap;fontFamily=Helvetica;fontSize=11;fontColor=default;labelBackgroundColor=default;" vertex="1" parent="1">
          <mxGeometry x="440" y="370" width="140" height="50" as="geometry" />
        </mxCell>
        <mxCell id="RMei4SnFyOSk8Rsyp4oy-5" value="System displays user information on page." style="html=1;align=center;verticalAlign=top;rounded=1;absoluteArcSize=1;arcSize=10;dashed=0;whiteSpace=wrap;fontFamily=Helvetica;fontSize=11;fontColor=default;labelBackgroundColor=default;" vertex="1" parent="1">
          <mxGeometry x="270" y="370" width="140" height="40" as="geometry" />
        </mxCell>
        <mxCell id="tfqA37HqT26UUyMBcvlJ-1" value="" style="ellipse;html=1;shape=endState;fillColor=#000000;strokeColor=#ff0000;" vertex="1" parent="1">
          <mxGeometry x="400" y="450" width="30" height="30" as="geometry" />
        </mxCell>
        <mxCell id="tfqA37HqT26UUyMBcvlJ-2" value="" style="edgeStyle=orthogonalEdgeStyle;html=1;align=left;verticalAlign=bottom;endArrow=none;endSize=8;strokeColor=#ff0000;rounded=0;startArrow=open;startFill=0;endFill=0;exitX=1;exitY=0.5;exitDx=0;exitDy=0;" edge="1" parent="1">
          <mxGeometry x="-1" relative="1" as="geometry">
            <mxPoint x="510" y="420" as="targetPoint" />
            <mxPoint as="offset" />
            <mxPoint x="430" y="465" as="sourcePoint" />
          </mxGeometry>
        </mxCell>
        <mxCell id="tfqA37HqT26UUyMBcvlJ-3" value="" style="edgeStyle=orthogonalEdgeStyle;html=1;align=left;verticalAlign=top;endArrow=none;endSize=8;strokeColor=#ff0000;rounded=0;startArrow=open;startFill=0;endFill=0;exitX=0;exitY=0.5;exitDx=0;exitDy=0;" edge="1" parent="1" source="tfqA37HqT26UUyMBcvlJ-1">
          <mxGeometry x="-0.1956" y="-20" relative="1" as="geometry">
            <mxPoint x="320" y="410" as="targetPoint" />
            <mxPoint as="offset" />
            <mxPoint x="400" y="455" as="sourcePoint" />
          </mxGeometry>
        </mxCell>
      </root>
    </mxGraphModel>
  </diagram>
  <diagram id="lbvz4gUcDyboIWDXnTn_" name="Search Library Catalog ">
    <mxGraphModel dx="1518" dy="731" grid="1" gridSize="10" guides="1" tooltips="1" connect="1" arrows="1" fold="1" page="1" pageScale="1" pageWidth="850" pageHeight="1100" math="0" shadow="0">
      <root>
        <mxCell id="0" />
        <mxCell id="1" parent="0" />
        <mxCell id="m3Wu_zCw6CIWblTBPKEA-1" value="Search Librarys Catalog&amp;nbsp;" style="shape=note2;boundedLbl=1;whiteSpace=wrap;html=1;size=25;verticalAlign=top;align=center;" vertex="1" parent="1">
          <mxGeometry x="90" y="70" width="120" height="60" as="geometry" />
        </mxCell>
        <mxCell id="PvbAQ9auKACFF8Ix0Zq3-1" value="" style="edgeStyle=orthogonalEdgeStyle;html=1;verticalAlign=bottom;endArrow=open;endSize=8;strokeColor=#ff0000;rounded=0;entryX=0.419;entryY=0.08;entryDx=0;entryDy=0;entryPerimeter=0;" edge="1" parent="1" source="VQAvIDWYF2QzpsFGi7v7-1" target="PvbAQ9auKACFF8Ix0Zq3-4">
          <mxGeometry relative="1" as="geometry">
            <mxPoint x="424" y="110" as="targetPoint" />
            <mxPoint x="424" y="50" as="sourcePoint" />
          </mxGeometry>
        </mxCell>
        <mxCell id="PvbAQ9auKACFF8Ix0Zq3-2" value="" style="edgeStyle=orthogonalEdgeStyle;html=1;verticalAlign=bottom;endArrow=open;endSize=8;strokeColor=#ff0000;rounded=0;" edge="1" parent="1">
          <mxGeometry relative="1" as="geometry">
            <mxPoint x="424" y="210" as="targetPoint" />
            <mxPoint x="424" y="150" as="sourcePoint" />
          </mxGeometry>
        </mxCell>
        <mxCell id="PvbAQ9auKACFF8Ix0Zq3-3" value="" style="edgeStyle=orthogonalEdgeStyle;html=1;verticalAlign=bottom;endArrow=open;endSize=8;strokeColor=#ff0000;rounded=0;" edge="1" parent="1" target="VQAvIDWYF2QzpsFGi7v7-1">
          <mxGeometry relative="1" as="geometry">
            <mxPoint x="424" y="110" as="targetPoint" />
            <mxPoint x="424" y="50" as="sourcePoint" />
          </mxGeometry>
        </mxCell>
        <mxCell id="VQAvIDWYF2QzpsFGi7v7-1" value="" style="ellipse;html=1;shape=startState;fillColor=#000000;strokeColor=#ff0000;" vertex="1" parent="1">
          <mxGeometry x="410" y="20" width="30" height="30" as="geometry" />
        </mxCell>
        <mxCell id="PvbAQ9auKACFF8Ix0Zq3-4" value="User navigates to store catalog.&amp;nbsp;" style="html=1;align=center;verticalAlign=top;rounded=1;absoluteArcSize=1;arcSize=10;dashed=0;whiteSpace=wrap;fontFamily=Helvetica;fontSize=11;fontColor=default;labelBackgroundColor=default;" vertex="1" parent="1">
          <mxGeometry x="365" y="120" width="140" height="40" as="geometry" />
        </mxCell>
        <mxCell id="PvbAQ9auKACFF8Ix0Zq3-5" value="User navigates to store catalog.&amp;nbsp;" style="html=1;align=center;verticalAlign=top;rounded=1;absoluteArcSize=1;arcSize=10;dashed=0;whiteSpace=wrap;fontFamily=Helvetica;fontSize=11;fontColor=default;labelBackgroundColor=default;" vertex="1" parent="1">
          <mxGeometry x="365" y="210" width="140" height="40" as="geometry" />
        </mxCell>
        <mxCell id="PvbAQ9auKACFF8Ix0Zq3-6" value="" style="edgeStyle=orthogonalEdgeStyle;html=1;verticalAlign=bottom;endArrow=open;endSize=8;strokeColor=#ff0000;rounded=0;" edge="1" parent="1">
          <mxGeometry relative="1" as="geometry">
            <mxPoint x="424" y="310" as="targetPoint" />
            <mxPoint x="424" y="250" as="sourcePoint" />
          </mxGeometry>
        </mxCell>
        <mxCell id="zzUB4lvL_HCifsZkCTel-1" value="No results were found for that specific search.&amp;nbsp;" style="edgeStyle=orthogonalEdgeStyle;html=1;align=left;verticalAlign=bottom;endArrow=open;endSize=8;strokeColor=#ff0000;rounded=0;exitX=1;exitY=0.5;exitDx=0;exitDy=0;" edge="1" parent="1" source="zzUB4lvL_HCifsZkCTel-3">
          <mxGeometry x="-1" relative="1" as="geometry">
            <mxPoint x="512.28" y="468" as="targetPoint" />
            <mxPoint x="467" y="420" as="sourcePoint" />
            <mxPoint as="offset" />
          </mxGeometry>
        </mxCell>
        <mxCell id="zzUB4lvL_HCifsZkCTel-2" value="The search result was found sucsessfully.&amp;nbsp;" style="edgeStyle=orthogonalEdgeStyle;html=1;align=left;verticalAlign=top;endArrow=open;endSize=8;strokeColor=#ff0000;rounded=0;exitX=0;exitY=0.5;exitDx=0;exitDy=0;" edge="1" parent="1" source="zzUB4lvL_HCifsZkCTel-3">
          <mxGeometry x="0.1524" y="-130" relative="1" as="geometry">
            <mxPoint x="337" y="470" as="targetPoint" />
            <mxPoint x="387" y="420" as="sourcePoint" />
            <mxPoint x="2" y="-24" as="offset" />
          </mxGeometry>
        </mxCell>
        <mxCell id="zzUB4lvL_HCifsZkCTel-3" value="" style="rhombus;fontFamily=Helvetica;fontSize=11;fontColor=default;labelBackgroundColor=default;" vertex="1" parent="1">
          <mxGeometry x="412.28" y="400" width="30" height="30" as="geometry" />
        </mxCell>
        <mxCell id="zzUB4lvL_HCifsZkCTel-4" value="" style="edgeStyle=orthogonalEdgeStyle;html=1;verticalAlign=bottom;endArrow=open;endSize=8;strokeColor=#ff0000;rounded=0;exitX=0.424;exitY=0.99;exitDx=0;exitDy=0;exitPerimeter=0;" edge="1" parent="1" source="dfJ_pyJHCnYN1Z-zFFp8-1">
          <mxGeometry relative="1" as="geometry">
            <mxPoint x="425" y="400" as="targetPoint" />
            <mxPoint x="424.3599999999999" y="349.5999999999999" as="sourcePoint" />
          </mxGeometry>
        </mxCell>
        <mxCell id="zzUB4lvL_HCifsZkCTel-5" value="Inform user of failed search and to try again." style="html=1;align=center;verticalAlign=top;rounded=1;absoluteArcSize=1;arcSize=10;dashed=0;whiteSpace=wrap;fontFamily=Helvetica;fontSize=11;fontColor=default;labelBackgroundColor=default;" vertex="1" parent="1">
          <mxGeometry x="460" y="470" width="140" height="40" as="geometry" />
        </mxCell>
        <mxCell id="zzUB4lvL_HCifsZkCTel-12" value="User selects media item from list of results, it&#39;s information is displayed on screen." style="html=1;align=center;verticalAlign=top;rounded=1;absoluteArcSize=1;arcSize=10;dashed=0;whiteSpace=wrap;fontFamily=Helvetica;fontSize=11;fontColor=default;labelBackgroundColor=default;" vertex="1" parent="1">
          <mxGeometry x="270" y="580" width="140" height="70" as="geometry" />
        </mxCell>
        <mxCell id="zzUB4lvL_HCifsZkCTel-13" value="" style="edgeStyle=orthogonalEdgeStyle;html=1;verticalAlign=bottom;endArrow=open;endSize=8;strokeColor=#ff0000;rounded=0;entryX=0.02;entryY=0.324;entryDx=0;entryDy=0;entryPerimeter=0;" edge="1" parent="1" target="dfJ_pyJHCnYN1Z-zFFp8-1">
          <mxGeometry relative="1" as="geometry">
            <mxPoint x="505" y="320" as="targetPoint" />
            <mxPoint x="510" y="510" as="sourcePoint" />
            <Array as="points">
              <mxPoint x="680" y="511" />
              <mxPoint x="680" y="320" />
              <mxPoint x="480" y="320" />
            </Array>
          </mxGeometry>
        </mxCell>
        <mxCell id="zzUB4lvL_HCifsZkCTel-14" value="" style="edgeStyle=orthogonalEdgeStyle;html=1;verticalAlign=bottom;endArrow=open;endSize=8;strokeColor=#ff0000;rounded=0;exitX=0.545;exitY=0.857;exitDx=0;exitDy=0;exitPerimeter=0;" edge="1" parent="1" source="KkmeBEd9PaMTqdWZ0GyM-1">
          <mxGeometry relative="1" as="geometry">
            <mxPoint x="330" y="580" as="targetPoint" />
            <mxPoint x="330" y="550" as="sourcePoint" />
          </mxGeometry>
        </mxCell>
        <mxCell id="zzUB4lvL_HCifsZkCTel-15" value="" style="edgeStyle=orthogonalEdgeStyle;html=1;verticalAlign=bottom;endArrow=open;endSize=8;strokeColor=#ff0000;rounded=0;" edge="1" parent="1">
          <mxGeometry relative="1" as="geometry">
            <mxPoint x="330" y="710" as="targetPoint" />
            <mxPoint x="330" y="650" as="sourcePoint" />
          </mxGeometry>
        </mxCell>
        <mxCell id="W5RGEC39kHK0I9FQJ7yU-1" value="" style="ellipse;html=1;shape=endState;fillColor=#000000;strokeColor=#ff0000;" vertex="1" parent="1">
          <mxGeometry x="310" y="710" width="30" height="30" as="geometry" />
        </mxCell>
        <mxCell id="dfJ_pyJHCnYN1Z-zFFp8-1" value="User enters search critera for items they want." style="shape=mxgraph.uml25.action;html=1;align=center;verticalAlign=middle;absoluteArcSize=1;arcSize=10;dashed=0;spacingLeft=10;flipH=1;whiteSpace=wrap;fontFamily=Helvetica;fontSize=11;fontColor=default;labelBackgroundColor=default;" vertex="1" parent="1">
          <mxGeometry x="350" y="310" width="110" height="50" as="geometry" />
        </mxCell>
        <mxCell id="dfJ_pyJHCnYN1Z-zFFp8-2" value="Name, Genre, ID" style="text;verticalAlign=middle;align=right;html=1;fontFamily=Helvetica;fontSize=11;fontColor=default;labelBackgroundColor=default;" vertex="1" parent="dfJ_pyJHCnYN1Z-zFFp8-1">
          <mxGeometry x="-60" width="60" height="50" as="geometry" />
        </mxCell>
        <mxCell id="KkmeBEd9PaMTqdWZ0GyM-1" value="Display search results and simular media details on screen&amp;nbsp;" style="shape=mxgraph.uml25.action;html=1;align=center;verticalAlign=middle;absoluteArcSize=1;arcSize=10;dashed=0;spacingRight=10;whiteSpace=wrap;fontFamily=Helvetica;fontSize=11;fontColor=default;labelBackgroundColor=default;" vertex="1" parent="1">
          <mxGeometry x="270" y="470" width="110" height="70" as="geometry" />
        </mxCell>
        <mxCell id="KkmeBEd9PaMTqdWZ0GyM-2" value="Media Details&amp;nbsp;" style="text;verticalAlign=middle;align=left;html=1;fontFamily=Helvetica;fontSize=11;fontColor=default;labelBackgroundColor=default;" vertex="1" parent="1">
          <mxGeometry x="380" y="478.75" width="60" height="52.5" as="geometry" />
        </mxCell>
      </root>
    </mxGraphModel>
  </diagram>
  <diagram id="NfGh8Sf8M4Jeos2tcDPU" name="Place hold on Media">
    <mxGraphModel dx="1518" dy="731" grid="1" gridSize="10" guides="1" tooltips="1" connect="1" arrows="1" fold="1" page="1" pageScale="1" pageWidth="850" pageHeight="1100" math="0" shadow="0">
      <root>
        <mxCell id="0" />
        <mxCell id="1" parent="0" />
        <mxCell id="fyuuWyngqpYMEmLaYQgo-1" value="Place Hold On Reserved Media&lt;div&gt;&lt;br&gt;&lt;/div&gt;" style="shape=note2;boundedLbl=1;whiteSpace=wrap;html=1;size=25;verticalAlign=top;align=center;" vertex="1" parent="1">
          <mxGeometry x="100" y="70" width="120" height="60" as="geometry" />
        </mxCell>
        <mxCell id="p7KpcK8mPPPeiWTvmuWK-1" value="" style="edgeStyle=orthogonalEdgeStyle;html=1;verticalAlign=bottom;endArrow=open;endSize=8;strokeColor=#ff0000;rounded=0;" edge="1" parent="1">
          <mxGeometry relative="1" as="geometry">
            <mxPoint x="425" y="100" as="targetPoint" />
            <mxPoint x="425" y="40" as="sourcePoint" />
          </mxGeometry>
        </mxCell>
        <mxCell id="p7KpcK8mPPPeiWTvmuWK-2" value="" style="ellipse;html=1;shape=startState;fillColor=#000000;strokeColor=#ff0000;" vertex="1" parent="1">
          <mxGeometry x="410" y="20" width="30" height="30" as="geometry" />
        </mxCell>
        <mxCell id="N1tthqNUXs-YLk7Sa0TX-1" value="System Verifys Media&#39;s Eligibility for Hold." style="html=1;align=center;verticalAlign=top;rounded=1;absoluteArcSize=1;arcSize=10;dashed=0;whiteSpace=wrap;fontFamily=Helvetica;fontSize=11;fontColor=default;labelBackgroundColor=default;" vertex="1" parent="1">
          <mxGeometry x="355" y="200" width="140" height="40" as="geometry" />
        </mxCell>
        <mxCell id="N1tthqNUXs-YLk7Sa0TX-2" value="" style="edgeStyle=orthogonalEdgeStyle;html=1;verticalAlign=bottom;endArrow=open;endSize=8;strokeColor=#ff0000;rounded=0;" edge="1" parent="1">
          <mxGeometry relative="1" as="geometry">
            <mxPoint x="425" y="200" as="targetPoint" />
            <mxPoint x="425" y="140" as="sourcePoint" />
          </mxGeometry>
        </mxCell>
        <mxCell id="N1tthqNUXs-YLk7Sa0TX-3" value="User Selects Item from catalog to reserve." style="html=1;align=center;verticalAlign=top;rounded=1;absoluteArcSize=1;arcSize=10;dashed=0;whiteSpace=wrap;fontFamily=Helvetica;fontSize=11;fontColor=default;labelBackgroundColor=default;" vertex="1" parent="1">
          <mxGeometry x="360" y="100" width="140" height="40" as="geometry" />
        </mxCell>
        <mxCell id="N1tthqNUXs-YLk7Sa0TX-4" value="" style="edgeStyle=orthogonalEdgeStyle;html=1;verticalAlign=bottom;endArrow=open;endSize=8;strokeColor=#ff0000;rounded=0;" edge="1" parent="1">
          <mxGeometry relative="1" as="geometry">
            <mxPoint x="425" y="300" as="targetPoint" />
            <mxPoint x="425" y="240" as="sourcePoint" />
          </mxGeometry>
        </mxCell>
        <mxCell id="YPjuqfhI8HF_G3RIm410-1" value="Item selected can not be reserved." style="edgeStyle=orthogonalEdgeStyle;html=1;align=left;verticalAlign=bottom;endArrow=open;endSize=8;strokeColor=#ff0000;rounded=0;exitX=1;exitY=0.5;exitDx=0;exitDy=0;" edge="1" parent="1" source="YPjuqfhI8HF_G3RIm410-3">
          <mxGeometry x="-1" relative="1" as="geometry">
            <mxPoint x="512.28" y="368" as="targetPoint" />
            <mxPoint x="467" y="320" as="sourcePoint" />
            <mxPoint as="offset" />
          </mxGeometry>
        </mxCell>
        <mxCell id="YPjuqfhI8HF_G3RIm410-2" value="Item is&amp;nbsp; currently available to reserve&amp;nbsp;" style="edgeStyle=orthogonalEdgeStyle;html=1;align=left;verticalAlign=top;endArrow=open;endSize=8;strokeColor=#ff0000;rounded=0;exitX=0;exitY=0.5;exitDx=0;exitDy=0;" edge="1" parent="1" source="YPjuqfhI8HF_G3RIm410-3">
          <mxGeometry x="0.1524" y="-130" relative="1" as="geometry">
            <mxPoint x="337" y="370" as="targetPoint" />
            <mxPoint x="387" y="320" as="sourcePoint" />
            <mxPoint x="2" y="-24" as="offset" />
          </mxGeometry>
        </mxCell>
        <mxCell id="YPjuqfhI8HF_G3RIm410-3" value="" style="rhombus;fontFamily=Helvetica;fontSize=11;fontColor=default;labelBackgroundColor=default;" vertex="1" parent="1">
          <mxGeometry x="412.28" y="300" width="30" height="30" as="geometry" />
        </mxCell>
        <mxCell id="YPjuqfhI8HF_G3RIm410-4" value="System Informs User item is currently unavailible to reseve." style="html=1;align=center;verticalAlign=top;rounded=1;absoluteArcSize=1;arcSize=10;dashed=0;whiteSpace=wrap;fontFamily=Helvetica;fontSize=11;fontColor=default;labelBackgroundColor=default;" vertex="1" parent="1">
          <mxGeometry x="470" y="370" width="140" height="50" as="geometry" />
        </mxCell>
        <mxCell id="YPjuqfhI8HF_G3RIm410-5" value="" style="edgeStyle=orthogonalEdgeStyle;html=1;verticalAlign=bottom;endArrow=open;endSize=8;strokeColor=#ff0000;rounded=0;entryX=1;entryY=0.25;entryDx=0;entryDy=0;" edge="1" parent="1" target="N1tthqNUXs-YLk7Sa0TX-3">
          <mxGeometry relative="1" as="geometry">
            <mxPoint x="520" y="480" as="targetPoint" />
            <mxPoint x="520" y="420" as="sourcePoint" />
            <Array as="points">
              <mxPoint x="520" y="421" />
              <mxPoint x="660" y="421" />
              <mxPoint x="660" y="110" />
            </Array>
          </mxGeometry>
        </mxCell>
        <mxCell id="YPjuqfhI8HF_G3RIm410-6" value="System places reservation hold on user&#39;s account for selected media." style="html=1;align=center;verticalAlign=top;rounded=1;absoluteArcSize=1;arcSize=10;dashed=0;whiteSpace=wrap;fontFamily=Helvetica;fontSize=11;fontColor=default;labelBackgroundColor=default;" vertex="1" parent="1">
          <mxGeometry x="270" y="370" width="140" height="50" as="geometry" />
        </mxCell>
        <mxCell id="YPjuqfhI8HF_G3RIm410-7" value="System Schedueles Notificaiton associated for Media selected, and User" style="html=1;align=center;verticalAlign=top;rounded=1;absoluteArcSize=1;arcSize=10;dashed=0;whiteSpace=wrap;fontFamily=Helvetica;fontSize=11;fontColor=default;labelBackgroundColor=default;" vertex="1" parent="1">
          <mxGeometry x="270" y="480" width="140" height="50" as="geometry" />
        </mxCell>
        <mxCell id="YPjuqfhI8HF_G3RIm410-8" value="" style="edgeStyle=orthogonalEdgeStyle;html=1;verticalAlign=bottom;endArrow=open;endSize=8;strokeColor=#ff0000;rounded=0;" edge="1" parent="1">
          <mxGeometry relative="1" as="geometry">
            <mxPoint x="339.5" y="480" as="targetPoint" />
            <mxPoint x="339.5" y="420" as="sourcePoint" />
          </mxGeometry>
        </mxCell>
        <mxCell id="YPjuqfhI8HF_G3RIm410-10" value="Display reservation details and confirmation to user." style="html=1;align=center;verticalAlign=top;rounded=1;absoluteArcSize=1;arcSize=10;dashed=0;whiteSpace=wrap;fontFamily=Helvetica;fontSize=11;fontColor=default;labelBackgroundColor=default;" vertex="1" parent="1">
          <mxGeometry x="272.28" y="590" width="140" height="50" as="geometry" />
        </mxCell>
        <mxCell id="YPjuqfhI8HF_G3RIm410-11" value="" style="edgeStyle=orthogonalEdgeStyle;html=1;verticalAlign=bottom;endArrow=open;endSize=8;strokeColor=#ff0000;rounded=0;" edge="1" parent="1">
          <mxGeometry relative="1" as="geometry">
            <mxPoint x="339.5" y="590" as="targetPoint" />
            <mxPoint x="339.5" y="530" as="sourcePoint" />
          </mxGeometry>
        </mxCell>
        <mxCell id="YPjuqfhI8HF_G3RIm410-12" value="" style="edgeStyle=orthogonalEdgeStyle;html=1;verticalAlign=bottom;endArrow=open;endSize=8;strokeColor=#ff0000;rounded=0;" edge="1" parent="1" source="X_bN4zFvf_q4HaNxBklW-1">
          <mxGeometry relative="1" as="geometry">
            <mxPoint x="339.5" y="700" as="targetPoint" />
            <mxPoint x="339.5" y="640" as="sourcePoint" />
          </mxGeometry>
        </mxCell>
        <mxCell id="X_bN4zFvf_q4HaNxBklW-2" value="" style="edgeStyle=orthogonalEdgeStyle;html=1;verticalAlign=bottom;endArrow=open;endSize=8;strokeColor=#ff0000;rounded=0;" edge="1" parent="1" target="X_bN4zFvf_q4HaNxBklW-1">
          <mxGeometry relative="1" as="geometry">
            <mxPoint x="339.5" y="700" as="targetPoint" />
            <mxPoint x="339.5" y="640" as="sourcePoint" />
          </mxGeometry>
        </mxCell>
        <mxCell id="X_bN4zFvf_q4HaNxBklW-1" value="" style="ellipse;html=1;shape=endState;fillColor=#000000;strokeColor=#ff0000;" vertex="1" parent="1">
          <mxGeometry x="325" y="700" width="30" height="30" as="geometry" />
        </mxCell>
      </root>
    </mxGraphModel>
  </diagram>
  <diagram id="c1UkkyLUW8oAWpt4LDa2" name="View Member Information">
    <mxGraphModel dx="1433" dy="690" grid="1" gridSize="10" guides="1" tooltips="1" connect="1" arrows="1" fold="1" page="1" pageScale="1" pageWidth="850" pageHeight="1100" math="0" shadow="0">
      <root>
        <mxCell id="0" />
        <mxCell id="1" parent="0" />
        <mxCell id="BQzbj_iGyAMJaB71Thy--1" value="" style="ellipse;html=1;shape=startState;fillColor=#000000;strokeColor=#ff0000;" vertex="1" parent="1">
          <mxGeometry x="410" y="20" width="30" height="30" as="geometry" />
        </mxCell>
        <mxCell id="BQzbj_iGyAMJaB71Thy--2" value="View Member Information" style="shape=note2;boundedLbl=1;whiteSpace=wrap;html=1;size=25;verticalAlign=top;align=center;" vertex="1" parent="1">
          <mxGeometry x="110" y="30" width="120" height="60" as="geometry" />
        </mxCell>
        <mxCell id="LM1W6dVrgndRsgSMAkAM-1" value="" style="edgeStyle=orthogonalEdgeStyle;html=1;verticalAlign=bottom;endArrow=open;endSize=8;strokeColor=#ff0000;rounded=0;" edge="1" parent="1">
          <mxGeometry relative="1" as="geometry">
            <mxPoint x="425" y="100" as="targetPoint" />
            <mxPoint x="425" y="40" as="sourcePoint" />
          </mxGeometry>
        </mxCell>
        <mxCell id="VbzgWeCTkzDJVD_rK0-E-1" value="Staff selects account search icon." style="html=1;align=center;verticalAlign=top;rounded=1;absoluteArcSize=1;arcSize=10;dashed=0;whiteSpace=wrap;fontFamily=Helvetica;fontSize=11;fontColor=default;labelBackgroundColor=default;" vertex="1" parent="1">
          <mxGeometry x="360" y="200" width="140" height="40" as="geometry" />
        </mxCell>
        <mxCell id="VbzgWeCTkzDJVD_rK0-E-2" value="Staff logs into the system" style="html=1;align=center;verticalAlign=top;rounded=1;absoluteArcSize=1;arcSize=10;dashed=0;whiteSpace=wrap;fontFamily=Helvetica;fontSize=11;fontColor=default;labelBackgroundColor=default;" vertex="1" parent="1">
          <mxGeometry x="370" y="100" width="140" height="40" as="geometry" />
        </mxCell>
        <mxCell id="VbzgWeCTkzDJVD_rK0-E-3" value="" style="edgeStyle=orthogonalEdgeStyle;html=1;verticalAlign=bottom;endArrow=open;endSize=8;strokeColor=#ff0000;rounded=0;" edge="1" parent="1">
          <mxGeometry relative="1" as="geometry">
            <mxPoint x="424" y="200" as="targetPoint" />
            <mxPoint x="424" y="140" as="sourcePoint" />
          </mxGeometry>
        </mxCell>
        <mxCell id="VbzgWeCTkzDJVD_rK0-E-4" value="" style="edgeStyle=orthogonalEdgeStyle;html=1;verticalAlign=bottom;endArrow=open;endSize=8;strokeColor=#ff0000;rounded=0;" edge="1" parent="1">
          <mxGeometry relative="1" as="geometry">
            <mxPoint x="424" y="300" as="targetPoint" />
            <mxPoint x="424" y="240" as="sourcePoint" />
          </mxGeometry>
        </mxCell>
        <mxCell id="qSa5fXTvErsU888dH9Fo-1" value="Search Function Can Not Complete" style="edgeStyle=orthogonalEdgeStyle;html=1;align=left;verticalAlign=bottom;endArrow=open;endSize=8;strokeColor=#ff0000;rounded=0;exitX=1;exitY=0.5;exitDx=0;exitDy=0;" edge="1" parent="1" source="qSa5fXTvErsU888dH9Fo-3">
          <mxGeometry x="-1" relative="1" as="geometry">
            <mxPoint x="512.28" y="478" as="targetPoint" />
            <mxPoint x="467" y="430" as="sourcePoint" />
            <mxPoint as="offset" />
          </mxGeometry>
        </mxCell>
        <mxCell id="qSa5fXTvErsU888dH9Fo-2" value="Search Function Completes Sucsessfully&amp;nbsp;" style="edgeStyle=orthogonalEdgeStyle;html=1;align=left;verticalAlign=top;endArrow=open;endSize=8;strokeColor=#ff0000;rounded=0;exitX=0;exitY=0.5;exitDx=0;exitDy=0;" edge="1" parent="1" source="qSa5fXTvErsU888dH9Fo-3">
          <mxGeometry x="0.1524" y="-140" relative="1" as="geometry">
            <mxPoint x="337" y="480" as="targetPoint" />
            <mxPoint x="387" y="430" as="sourcePoint" />
            <mxPoint x="2" y="-24" as="offset" />
          </mxGeometry>
        </mxCell>
        <mxCell id="qSa5fXTvErsU888dH9Fo-3" value="" style="rhombus;fontFamily=Helvetica;fontSize=11;fontColor=default;labelBackgroundColor=default;" vertex="1" parent="1">
          <mxGeometry x="412.28" y="410" width="30" height="30" as="geometry" />
        </mxCell>
        <mxCell id="qSa5fXTvErsU888dH9Fo-4" value="" style="edgeStyle=orthogonalEdgeStyle;html=1;verticalAlign=bottom;endArrow=open;endSize=8;strokeColor=#ff0000;rounded=0;" edge="1" parent="1">
          <mxGeometry relative="1" as="geometry">
            <mxPoint x="425" y="410" as="targetPoint" />
            <mxPoint x="425" y="350" as="sourcePoint" />
          </mxGeometry>
        </mxCell>
        <mxCell id="qSa5fXTvErsU888dH9Fo-6" value="Notify staff that no valid account matches criteria and to try again." style="html=1;align=center;verticalAlign=top;rounded=1;absoluteArcSize=1;arcSize=10;dashed=0;whiteSpace=wrap;fontFamily=Helvetica;fontSize=11;fontColor=default;labelBackgroundColor=default;" vertex="1" parent="1">
          <mxGeometry x="450" y="480" width="140" height="50" as="geometry" />
        </mxCell>
        <mxCell id="qSa5fXTvErsU888dH9Fo-7" value="System Retreives and Displays Account Details" style="html=1;align=center;verticalAlign=top;rounded=1;absoluteArcSize=1;arcSize=10;dashed=0;whiteSpace=wrap;fontFamily=Helvetica;fontSize=11;fontColor=default;labelBackgroundColor=default;" vertex="1" parent="1">
          <mxGeometry x="270" y="480" width="140" height="40" as="geometry" />
        </mxCell>
        <mxCell id="qSa5fXTvErsU888dH9Fo-8" value="" style="edgeStyle=orthogonalEdgeStyle;html=1;verticalAlign=bottom;endArrow=open;endSize=8;strokeColor=#ff0000;rounded=0;entryX=0;entryY=0.5;entryDx=0;entryDy=0;" edge="1" parent="1" target="S8iNvRflJT5mH8Fl8766-1">
          <mxGeometry relative="1" as="geometry">
            <mxPoint x="339.5" y="580" as="targetPoint" />
            <mxPoint x="339.5" y="520" as="sourcePoint" />
          </mxGeometry>
        </mxCell>
        <mxCell id="qSa5fXTvErsU888dH9Fo-9" value="" style="edgeStyle=orthogonalEdgeStyle;html=1;verticalAlign=bottom;endArrow=open;endSize=8;strokeColor=#ff0000;rounded=0;entryX=1;entryY=0.5;entryDx=0;entryDy=0;" edge="1" parent="1" target="S8iNvRflJT5mH8Fl8766-1">
          <mxGeometry relative="1" as="geometry">
            <mxPoint x="510" y="590" as="targetPoint" />
            <mxPoint x="510" y="530" as="sourcePoint" />
          </mxGeometry>
        </mxCell>
        <mxCell id="RdEC8p-f-uWkBe1dZql9-1" value="" style="edgeStyle=orthogonalEdgeStyle;html=1;verticalAlign=bottom;endArrow=open;endSize=8;strokeColor=#ff0000;rounded=0;" edge="1" parent="1">
          <mxGeometry relative="1" as="geometry">
            <mxPoint x="339.5" y="700" as="targetPoint" />
            <mxPoint x="340" y="700" as="sourcePoint" />
          </mxGeometry>
        </mxCell>
        <mxCell id="S8iNvRflJT5mH8Fl8766-1" value="" style="ellipse;html=1;shape=endState;fillColor=#000000;strokeColor=#ff0000;" vertex="1" parent="1">
          <mxGeometry x="410" y="580" width="30" height="30" as="geometry" />
        </mxCell>
        <mxCell id="MvOzoYMCVbukQh78L5dp-5" value="Staff Searches for a member using name, ID, or other identifyers&amp;nbsp;" style="shape=mxgraph.uml25.action;html=1;align=center;verticalAlign=middle;absoluteArcSize=1;arcSize=10;dashed=0;spacingLeft=10;flipH=1;whiteSpace=wrap;fontFamily=Helvetica;fontSize=11;fontColor=default;labelBackgroundColor=default;" vertex="1" parent="1">
          <mxGeometry x="370" y="300" width="110" height="60" as="geometry" />
        </mxCell>
        <mxCell id="MvOzoYMCVbukQh78L5dp-6" value="name, ID, Other Identifyer" style="text;verticalAlign=middle;align=right;html=1;fontFamily=Helvetica;fontSize=11;fontColor=default;labelBackgroundColor=default;" vertex="1" parent="MvOzoYMCVbukQh78L5dp-5">
          <mxGeometry x="-60" width="60" height="59.99999999999999" as="geometry" />
        </mxCell>
      </root>
    </mxGraphModel>
  </diagram>
  <diagram id="4g6UDe_JdiI9TBHx4DdW" name="View Media Information">
    <mxGraphModel dx="1290" dy="621" grid="1" gridSize="10" guides="1" tooltips="1" connect="1" arrows="1" fold="1" page="1" pageScale="1" pageWidth="850" pageHeight="1100" math="0" shadow="0">
      <root>
        <mxCell id="0" />
        <mxCell id="1" parent="0" />
        <mxCell id="5nx2TGhnD71M6jioJr1b-1" value="" style="ellipse;html=1;shape=startState;fillColor=#000000;strokeColor=#ff0000;" vertex="1" parent="1">
          <mxGeometry x="410" y="20" width="30" height="30" as="geometry" />
        </mxCell>
        <mxCell id="5nx2TGhnD71M6jioJr1b-2" value="View Media Information" style="shape=note2;boundedLbl=1;whiteSpace=wrap;html=1;size=25;verticalAlign=top;align=center;" vertex="1" parent="1">
          <mxGeometry x="110" y="30" width="120" height="60" as="geometry" />
        </mxCell>
        <mxCell id="5nx2TGhnD71M6jioJr1b-3" value="" style="edgeStyle=orthogonalEdgeStyle;html=1;verticalAlign=bottom;endArrow=open;endSize=8;strokeColor=#ff0000;rounded=0;" edge="1" parent="1">
          <mxGeometry relative="1" as="geometry">
            <mxPoint x="425" y="100" as="targetPoint" />
            <mxPoint x="425" y="40" as="sourcePoint" />
          </mxGeometry>
        </mxCell>
        <mxCell id="5nx2TGhnD71M6jioJr1b-4" value="Staff selects media search icon." style="html=1;align=center;verticalAlign=top;rounded=1;absoluteArcSize=1;arcSize=10;dashed=0;whiteSpace=wrap;fontFamily=Helvetica;fontSize=11;fontColor=default;labelBackgroundColor=default;" vertex="1" parent="1">
          <mxGeometry x="360" y="200" width="140" height="40" as="geometry" />
        </mxCell>
        <mxCell id="5nx2TGhnD71M6jioJr1b-5" value="Staff logs into the system" style="html=1;align=center;verticalAlign=top;rounded=1;absoluteArcSize=1;arcSize=10;dashed=0;whiteSpace=wrap;fontFamily=Helvetica;fontSize=11;fontColor=default;labelBackgroundColor=default;" vertex="1" parent="1">
          <mxGeometry x="370" y="100" width="140" height="40" as="geometry" />
        </mxCell>
        <mxCell id="5nx2TGhnD71M6jioJr1b-6" value="" style="edgeStyle=orthogonalEdgeStyle;html=1;verticalAlign=bottom;endArrow=open;endSize=8;strokeColor=#ff0000;rounded=0;" edge="1" parent="1">
          <mxGeometry relative="1" as="geometry">
            <mxPoint x="424" y="200" as="targetPoint" />
            <mxPoint x="424" y="140" as="sourcePoint" />
          </mxGeometry>
        </mxCell>
        <mxCell id="5nx2TGhnD71M6jioJr1b-7" value="" style="edgeStyle=orthogonalEdgeStyle;html=1;verticalAlign=bottom;endArrow=open;endSize=8;strokeColor=#ff0000;rounded=0;" edge="1" parent="1">
          <mxGeometry relative="1" as="geometry">
            <mxPoint x="424" y="300" as="targetPoint" />
            <mxPoint x="424" y="240" as="sourcePoint" />
          </mxGeometry>
        </mxCell>
        <mxCell id="5nx2TGhnD71M6jioJr1b-8" value="Staff Searches for media using name, ID, or other identifyers&amp;nbsp;" style="html=1;align=center;verticalAlign=top;rounded=1;absoluteArcSize=1;arcSize=10;dashed=0;whiteSpace=wrap;fontFamily=Helvetica;fontSize=11;fontColor=default;labelBackgroundColor=default;" vertex="1" parent="1">
          <mxGeometry x="360" y="300" width="140" height="50" as="geometry" />
        </mxCell>
        <mxCell id="5nx2TGhnD71M6jioJr1b-9" value="Search Function Can Not Complete" style="edgeStyle=orthogonalEdgeStyle;html=1;align=left;verticalAlign=bottom;endArrow=open;endSize=8;strokeColor=#ff0000;rounded=0;exitX=1;exitY=0.5;exitDx=0;exitDy=0;" edge="1" parent="1" source="5nx2TGhnD71M6jioJr1b-11">
          <mxGeometry x="-1" relative="1" as="geometry">
            <mxPoint x="512.28" y="478" as="targetPoint" />
            <mxPoint x="467" y="430" as="sourcePoint" />
            <mxPoint as="offset" />
          </mxGeometry>
        </mxCell>
        <mxCell id="5nx2TGhnD71M6jioJr1b-10" value="Search Function Completes Sucsessfully&amp;nbsp;" style="edgeStyle=orthogonalEdgeStyle;html=1;align=left;verticalAlign=top;endArrow=open;endSize=8;strokeColor=#ff0000;rounded=0;exitX=0;exitY=0.5;exitDx=0;exitDy=0;" edge="1" parent="1" source="5nx2TGhnD71M6jioJr1b-11">
          <mxGeometry x="0.1524" y="-140" relative="1" as="geometry">
            <mxPoint x="337" y="480" as="targetPoint" />
            <mxPoint x="387" y="430" as="sourcePoint" />
            <mxPoint x="2" y="-24" as="offset" />
          </mxGeometry>
        </mxCell>
        <mxCell id="5nx2TGhnD71M6jioJr1b-11" value="" style="rhombus;fontFamily=Helvetica;fontSize=11;fontColor=default;labelBackgroundColor=default;" vertex="1" parent="1">
          <mxGeometry x="412.28" y="410" width="30" height="30" as="geometry" />
        </mxCell>
        <mxCell id="5nx2TGhnD71M6jioJr1b-12" value="" style="edgeStyle=orthogonalEdgeStyle;html=1;verticalAlign=bottom;endArrow=open;endSize=8;strokeColor=#ff0000;rounded=0;" edge="1" parent="1">
          <mxGeometry relative="1" as="geometry">
            <mxPoint x="425" y="410" as="targetPoint" />
            <mxPoint x="425" y="350" as="sourcePoint" />
          </mxGeometry>
        </mxCell>
        <mxCell id="5nx2TGhnD71M6jioJr1b-13" value="Notify staff that no valid media matches criteria and to try again." style="html=1;align=center;verticalAlign=top;rounded=1;absoluteArcSize=1;arcSize=10;dashed=0;whiteSpace=wrap;fontFamily=Helvetica;fontSize=11;fontColor=default;labelBackgroundColor=default;" vertex="1" parent="1">
          <mxGeometry x="450" y="480" width="140" height="50" as="geometry" />
        </mxCell>
        <mxCell id="5nx2TGhnD71M6jioJr1b-14" value="System Retreives and Displays Media Details" style="html=1;align=center;verticalAlign=top;rounded=1;absoluteArcSize=1;arcSize=10;dashed=0;whiteSpace=wrap;fontFamily=Helvetica;fontSize=11;fontColor=default;labelBackgroundColor=default;" vertex="1" parent="1">
          <mxGeometry x="270" y="480" width="140" height="40" as="geometry" />
        </mxCell>
        <mxCell id="5nx2TGhnD71M6jioJr1b-15" value="" style="edgeStyle=orthogonalEdgeStyle;html=1;verticalAlign=bottom;endArrow=open;endSize=8;strokeColor=#ff0000;rounded=0;entryX=0;entryY=0.5;entryDx=0;entryDy=0;" edge="1" parent="1" target="5nx2TGhnD71M6jioJr1b-17">
          <mxGeometry relative="1" as="geometry">
            <mxPoint x="339.5" y="580" as="targetPoint" />
            <mxPoint x="339.5" y="520" as="sourcePoint" />
          </mxGeometry>
        </mxCell>
        <mxCell id="5nx2TGhnD71M6jioJr1b-16" value="" style="edgeStyle=orthogonalEdgeStyle;html=1;verticalAlign=bottom;endArrow=open;endSize=8;strokeColor=#ff0000;rounded=0;entryX=1;entryY=0.5;entryDx=0;entryDy=0;" edge="1" parent="1" target="5nx2TGhnD71M6jioJr1b-17">
          <mxGeometry relative="1" as="geometry">
            <mxPoint x="510" y="590" as="targetPoint" />
            <mxPoint x="510" y="530" as="sourcePoint" />
          </mxGeometry>
        </mxCell>
        <mxCell id="5nx2TGhnD71M6jioJr1b-17" value="" style="ellipse;html=1;shape=endState;fillColor=#000000;strokeColor=#ff0000;" vertex="1" parent="1">
          <mxGeometry x="410" y="580" width="30" height="30" as="geometry" />
        </mxCell>
      </root>
    </mxGraphModel>
  </diagram>
  <diagram id="QY-BB_Babx08-yEeX6X5" name="Meeting Room Reservations ">
    <mxGraphModel dx="1985" dy="955" grid="1" gridSize="10" guides="1" tooltips="1" connect="1" arrows="1" fold="1" page="1" pageScale="1" pageWidth="850" pageHeight="1100" math="0" shadow="0">
      <root>
        <mxCell id="0" />
        <mxCell id="1" parent="0" />
        <mxCell id="cbk9vj99a5heYpSg6WcI-1" value="Approve/Decline Meeting room reversation" style="shape=note2;boundedLbl=1;whiteSpace=wrap;html=1;size=25;verticalAlign=top;align=center;" vertex="1" parent="1">
          <mxGeometry x="70" y="70" width="120" height="80" as="geometry" />
        </mxCell>
        <mxCell id="N5QmMKRbl7jAu_Wm37pc-1" value="" style="ellipse;html=1;shape=startState;fillColor=#000000;strokeColor=#ff0000;" vertex="1" parent="1">
          <mxGeometry x="410" y="30" width="30" height="30" as="geometry" />
        </mxCell>
        <mxCell id="UvAGzB-ffO_HjaSnV2xV-1" value="" style="edgeStyle=orthogonalEdgeStyle;html=1;verticalAlign=bottom;endArrow=open;endSize=8;strokeColor=#ff0000;rounded=0;" edge="1" parent="1">
          <mxGeometry relative="1" as="geometry">
            <mxPoint x="425" y="120" as="targetPoint" />
            <mxPoint x="425" y="60" as="sourcePoint" />
          </mxGeometry>
        </mxCell>
        <mxCell id="_k5bOKLrbXmC_hnmxMD8-1" value="Staff logs into the system and selects Meeting Room Icon" style="html=1;align=center;verticalAlign=top;rounded=1;absoluteArcSize=1;arcSize=10;dashed=0;whiteSpace=wrap;fontFamily=Helvetica;fontSize=11;fontColor=default;labelBackgroundColor=default;" vertex="1" parent="1">
          <mxGeometry x="360" y="120" width="140" height="50" as="geometry" />
        </mxCell>
        <mxCell id="isonPVud2jU-_ZhtvLn6-1" value="" style="edgeStyle=orthogonalEdgeStyle;html=1;verticalAlign=bottom;endArrow=open;endSize=8;strokeColor=#ff0000;rounded=0;" edge="1" parent="1">
          <mxGeometry relative="1" as="geometry">
            <mxPoint x="424" y="230" as="targetPoint" />
            <mxPoint x="424" y="170" as="sourcePoint" />
          </mxGeometry>
        </mxCell>
        <mxCell id="isonPVud2jU-_ZhtvLn6-2" value="Staff reviews reservation request details: Member Account Status and Room Availibility" style="html=1;align=center;verticalAlign=top;rounded=1;absoluteArcSize=1;arcSize=10;dashed=0;whiteSpace=wrap;fontFamily=Helvetica;fontSize=11;fontColor=default;labelBackgroundColor=default;" vertex="1" parent="1">
          <mxGeometry x="350" y="230" width="140" height="60" as="geometry" />
        </mxCell>
        <mxCell id="yehYLpoHROAif6AsOf7f-1" value="There is a conflict with reservation availibiity&amp;nbsp;" style="edgeStyle=orthogonalEdgeStyle;html=1;align=left;verticalAlign=bottom;endArrow=open;endSize=8;strokeColor=#ff0000;rounded=0;exitX=1;exitY=0.5;exitDx=0;exitDy=0;" edge="1" parent="1" source="yehYLpoHROAif6AsOf7f-3">
          <mxGeometry x="-1" relative="1" as="geometry">
            <mxPoint x="499.5" y="398" as="targetPoint" />
            <mxPoint x="454.22" y="350" as="sourcePoint" />
            <mxPoint as="offset" />
          </mxGeometry>
        </mxCell>
        <mxCell id="yehYLpoHROAif6AsOf7f-2" value="There is no conflict with reservation availibility&amp;nbsp;" style="edgeStyle=orthogonalEdgeStyle;html=1;align=left;verticalAlign=top;endArrow=open;endSize=8;strokeColor=#ff0000;rounded=0;exitX=0;exitY=0.5;exitDx=0;exitDy=0;" edge="1" parent="1" source="yehYLpoHROAif6AsOf7f-3">
          <mxGeometry x="0.3928" y="-167" relative="1" as="geometry">
            <mxPoint x="324.22" y="400" as="targetPoint" />
            <mxPoint x="374.22" y="350" as="sourcePoint" />
            <mxPoint x="2" y="-22" as="offset" />
          </mxGeometry>
        </mxCell>
        <mxCell id="yehYLpoHROAif6AsOf7f-4" value="" style="edgeStyle=orthogonalEdgeStyle;html=1;verticalAlign=bottom;endArrow=open;endSize=8;strokeColor=#ff0000;rounded=0;" edge="1" parent="1" source="yehYLpoHROAif6AsOf7f-3">
          <mxGeometry relative="1" as="geometry">
            <mxPoint x="419.5" y="350" as="targetPoint" />
            <mxPoint x="419.5" y="290" as="sourcePoint" />
          </mxGeometry>
        </mxCell>
        <mxCell id="yehYLpoHROAif6AsOf7f-6" value="" style="edgeStyle=orthogonalEdgeStyle;html=1;verticalAlign=bottom;endArrow=open;endSize=8;strokeColor=#ff0000;rounded=0;" edge="1" parent="1" target="yehYLpoHROAif6AsOf7f-3">
          <mxGeometry relative="1" as="geometry">
            <mxPoint x="419.5" y="350" as="targetPoint" />
            <mxPoint x="419.5" y="290" as="sourcePoint" />
          </mxGeometry>
        </mxCell>
        <mxCell id="yehYLpoHROAif6AsOf7f-3" value="" style="rhombus;fontFamily=Helvetica;fontSize=11;fontColor=default;labelBackgroundColor=default;" vertex="1" parent="1">
          <mxGeometry x="405" y="350" width="30" height="30" as="geometry" />
        </mxCell>
        <mxCell id="yehYLpoHROAif6AsOf7f-7" value="Staff suggest alternative reservation details to user and inform user of conflict.&amp;nbsp;" style="html=1;align=center;verticalAlign=top;rounded=1;absoluteArcSize=1;arcSize=10;dashed=0;whiteSpace=wrap;fontFamily=Helvetica;fontSize=11;fontColor=default;labelBackgroundColor=default;" vertex="1" parent="1">
          <mxGeometry x="440" y="400" width="140" height="50" as="geometry" />
        </mxCell>
        <mxCell id="yehYLpoHROAif6AsOf7f-8" value="Staff Approves or Denys the Reservation Request" style="html=1;align=center;verticalAlign=top;rounded=1;absoluteArcSize=1;arcSize=10;dashed=0;whiteSpace=wrap;fontFamily=Helvetica;fontSize=11;fontColor=default;labelBackgroundColor=default;" vertex="1" parent="1">
          <mxGeometry x="250" y="400" width="140" height="50" as="geometry" />
        </mxCell>
        <mxCell id="ZRcDOPBcFc-r1SMG-STv-1" value="Reservation is Denied." style="edgeStyle=orthogonalEdgeStyle;html=1;align=left;verticalAlign=bottom;endArrow=open;endSize=8;strokeColor=#ff0000;rounded=0;exitX=1;exitY=0.5;exitDx=0;exitDy=0;" edge="1" parent="1" source="ZRcDOPBcFc-r1SMG-STv-3">
          <mxGeometry x="-1" relative="1" as="geometry">
            <mxPoint x="389.5" y="568" as="targetPoint" />
            <mxPoint x="344.22" y="520" as="sourcePoint" />
            <mxPoint as="offset" />
          </mxGeometry>
        </mxCell>
        <mxCell id="ZRcDOPBcFc-r1SMG-STv-2" value="Reservation is accepted&amp;nbsp;" style="edgeStyle=orthogonalEdgeStyle;html=1;align=left;verticalAlign=top;endArrow=open;endSize=8;strokeColor=#ff0000;rounded=0;exitX=0;exitY=0.5;exitDx=0;exitDy=0;" edge="1" parent="1" source="ZRcDOPBcFc-r1SMG-STv-3">
          <mxGeometry x="0.3348" y="-51" relative="1" as="geometry">
            <mxPoint x="214.22" y="570" as="targetPoint" />
            <mxPoint x="264.22" y="520" as="sourcePoint" />
            <mxPoint x="6" y="-24" as="offset" />
          </mxGeometry>
        </mxCell>
        <mxCell id="ZRcDOPBcFc-r1SMG-STv-3" value="" style="rhombus;fontFamily=Helvetica;fontSize=11;fontColor=default;labelBackgroundColor=default;" vertex="1" parent="1">
          <mxGeometry x="305" y="510" width="30" height="30" as="geometry" />
        </mxCell>
        <mxCell id="ZRcDOPBcFc-r1SMG-STv-4" value="" style="edgeStyle=orthogonalEdgeStyle;html=1;verticalAlign=bottom;endArrow=open;endSize=8;strokeColor=#ff0000;rounded=0;" edge="1" parent="1">
          <mxGeometry relative="1" as="geometry">
            <mxPoint x="320" y="511" as="targetPoint" />
            <mxPoint x="319.5" y="450" as="sourcePoint" />
          </mxGeometry>
        </mxCell>
        <mxCell id="ZRcDOPBcFc-r1SMG-STv-5" value="" style="edgeStyle=orthogonalEdgeStyle;html=1;verticalAlign=bottom;endArrow=open;endSize=8;strokeColor=#ff0000;rounded=0;entryX=1;entryY=0.5;entryDx=0;entryDy=0;" edge="1" parent="1" target="isonPVud2jU-_ZhtvLn6-2">
          <mxGeometry relative="1" as="geometry">
            <mxPoint x="500" y="510" as="targetPoint" />
            <mxPoint x="500" y="450" as="sourcePoint" />
            <Array as="points">
              <mxPoint x="500" y="451" />
              <mxPoint x="700" y="451" />
              <mxPoint x="700" y="260" />
            </Array>
          </mxGeometry>
        </mxCell>
        <mxCell id="ZRcDOPBcFc-r1SMG-STv-6" value="User Is Informed Reservation is Denied and to try again another day." style="html=1;align=center;verticalAlign=top;rounded=1;absoluteArcSize=1;arcSize=10;dashed=0;whiteSpace=wrap;fontFamily=Helvetica;fontSize=11;fontColor=default;labelBackgroundColor=default;" vertex="1" parent="1">
          <mxGeometry x="340" y="570" width="140" height="50" as="geometry" />
        </mxCell>
        <mxCell id="ZRcDOPBcFc-r1SMG-STv-7" value="User Is Informed Reservation is accepted." style="html=1;align=center;verticalAlign=top;rounded=1;absoluteArcSize=1;arcSize=10;dashed=0;whiteSpace=wrap;fontFamily=Helvetica;fontSize=11;fontColor=default;labelBackgroundColor=default;" vertex="1" parent="1">
          <mxGeometry x="150" y="570" width="140" height="60" as="geometry" />
        </mxCell>
        <mxCell id="ZRcDOPBcFc-r1SMG-STv-11" value="Reservation is recorded in system and notifies user of sucsess.&amp;nbsp;" style="html=1;align=center;verticalAlign=top;rounded=1;absoluteArcSize=1;arcSize=10;dashed=0;whiteSpace=wrap;fontFamily=Helvetica;fontSize=11;fontColor=default;labelBackgroundColor=default;" vertex="1" parent="1">
          <mxGeometry x="150" y="690" width="140" height="50" as="geometry" />
        </mxCell>
        <mxCell id="ZRcDOPBcFc-r1SMG-STv-12" value="" style="edgeStyle=orthogonalEdgeStyle;html=1;verticalAlign=bottom;endArrow=open;endSize=8;strokeColor=#ff0000;rounded=0;entryX=0;entryY=0.5;entryDx=0;entryDy=0;exitX=0.429;exitY=1;exitDx=0;exitDy=0;exitPerimeter=0;" edge="1" parent="1" source="ZRcDOPBcFc-r1SMG-STv-11" target="YOwxfnF068uBjvnku7nX-1">
          <mxGeometry relative="1" as="geometry">
            <mxPoint x="210.5" y="791" as="targetPoint" />
            <mxPoint x="210" y="770" as="sourcePoint" />
            <Array as="points">
              <mxPoint x="210" y="795" />
            </Array>
          </mxGeometry>
        </mxCell>
        <mxCell id="ZRcDOPBcFc-r1SMG-STv-13" value="" style="edgeStyle=orthogonalEdgeStyle;html=1;verticalAlign=bottom;endArrow=open;endSize=8;strokeColor=#ff0000;rounded=0;entryX=1;entryY=0.5;entryDx=0;entryDy=0;" edge="1" parent="1" target="YOwxfnF068uBjvnku7nX-1">
          <mxGeometry relative="1" as="geometry">
            <mxPoint x="390.5" y="680" as="targetPoint" />
            <mxPoint x="390" y="619" as="sourcePoint" />
            <Array as="points">
              <mxPoint x="390" y="795" />
            </Array>
          </mxGeometry>
        </mxCell>
        <mxCell id="YOwxfnF068uBjvnku7nX-1" value="" style="ellipse;html=1;shape=endState;fillColor=#000000;strokeColor=#ff0000;" vertex="1" parent="1">
          <mxGeometry x="290" y="780" width="30" height="30" as="geometry" />
        </mxCell>
        <mxCell id="Z3Dve6xmZUxwSe_zQowO-1" value="" style="edgeStyle=orthogonalEdgeStyle;html=1;verticalAlign=bottom;endArrow=open;endSize=8;strokeColor=#ff0000;rounded=0;" edge="1" parent="1">
          <mxGeometry relative="1" as="geometry">
            <mxPoint x="210.5" y="691" as="targetPoint" />
            <mxPoint x="210" y="630" as="sourcePoint" />
          </mxGeometry>
        </mxCell>
      </root>
    </mxGraphModel>
  </diagram>
  <diagram id="g-wF0l69a7_93MQcxPm8" name="accept payments and fines ">
    <mxGraphModel dx="1843" dy="887" grid="1" gridSize="10" guides="1" tooltips="1" connect="1" arrows="1" fold="1" page="1" pageScale="1" pageWidth="850" pageHeight="1100" math="0" shadow="0">
      <root>
        <mxCell id="0" />
        <mxCell id="1" parent="0" />
        <mxCell id="kopZ01Nyztc2qLF_YtPy-1" value="Accept Payments and Fines&amp;nbsp;" style="shape=note2;boundedLbl=1;whiteSpace=wrap;html=1;size=25;verticalAlign=top;align=center;" vertex="1" parent="1">
          <mxGeometry x="120" y="60" width="120" height="60" as="geometry" />
        </mxCell>
        <mxCell id="iRezc003uSfuK_DaLajm-1" value="" style="ellipse;html=1;shape=startState;fillColor=#000000;strokeColor=#ff0000;" vertex="1" parent="1">
          <mxGeometry x="380" y="100" width="30" height="30" as="geometry" />
        </mxCell>
        <mxCell id="iRezc003uSfuK_DaLajm-2" value="" style="edgeStyle=orthogonalEdgeStyle;html=1;verticalAlign=bottom;endArrow=open;endSize=8;strokeColor=#ff0000;rounded=0;" edge="1" parent="1">
          <mxGeometry relative="1" as="geometry">
            <mxPoint x="394.5" y="180" as="targetPoint" />
            <mxPoint x="394.5" y="120" as="sourcePoint" />
          </mxGeometry>
        </mxCell>
        <mxCell id="qfXTt1dGC8WT95OLpSbY-1" value="Staff Log into system and selects Payments icon." style="html=1;align=center;verticalAlign=top;rounded=1;absoluteArcSize=1;arcSize=10;dashed=0;whiteSpace=wrap;fontFamily=Helvetica;fontSize=11;fontColor=default;labelBackgroundColor=default;" vertex="1" parent="1">
          <mxGeometry x="330" y="180" width="140" height="40" as="geometry" />
        </mxCell>
        <mxCell id="qfXTt1dGC8WT95OLpSbY-2" value="Staff Selects to Process Payment via thrid party processor. ( Paypal)&amp;nbsp;" style="html=1;align=center;verticalAlign=top;rounded=1;absoluteArcSize=1;arcSize=10;dashed=0;whiteSpace=wrap;fontFamily=Helvetica;fontSize=11;fontColor=default;labelBackgroundColor=default;" vertex="1" parent="1">
          <mxGeometry x="325" y="430" width="140" height="50" as="geometry" />
        </mxCell>
        <mxCell id="qfXTt1dGC8WT95OLpSbY-3" value="" style="edgeStyle=orthogonalEdgeStyle;html=1;verticalAlign=bottom;endArrow=open;endSize=8;strokeColor=#ff0000;rounded=0;" edge="1" parent="1">
          <mxGeometry relative="1" as="geometry">
            <mxPoint x="395" y="260" as="targetPoint" />
            <mxPoint x="394.5" y="220" as="sourcePoint" />
          </mxGeometry>
        </mxCell>
        <mxCell id="qfXTt1dGC8WT95OLpSbY-4" value="" style="edgeStyle=orthogonalEdgeStyle;html=1;verticalAlign=bottom;endArrow=open;endSize=8;strokeColor=#ff0000;rounded=0;" edge="1" parent="1">
          <mxGeometry relative="1" as="geometry">
            <mxPoint x="394.98" y="350" as="targetPoint" />
            <mxPoint x="394.48" y="310" as="sourcePoint" />
          </mxGeometry>
        </mxCell>
        <mxCell id="qfXTt1dGC8WT95OLpSbY-6" value="Staff views outstanding fines and account&#39;s standing balance." style="html=1;align=center;verticalAlign=top;rounded=1;absoluteArcSize=1;arcSize=10;dashed=0;whiteSpace=wrap;fontFamily=Helvetica;fontSize=11;fontColor=default;labelBackgroundColor=default;" vertex="1" parent="1">
          <mxGeometry x="330" y="350" width="140" height="50" as="geometry" />
        </mxCell>
        <mxCell id="qfXTt1dGC8WT95OLpSbY-7" value="" style="edgeStyle=orthogonalEdgeStyle;html=1;verticalAlign=bottom;endArrow=open;endSize=8;strokeColor=#ff0000;rounded=0;" edge="1" parent="1">
          <mxGeometry relative="1" as="geometry">
            <mxPoint x="394.48" y="430" as="targetPoint" />
            <mxPoint x="394.98" y="400" as="sourcePoint" />
          </mxGeometry>
        </mxCell>
        <mxCell id="qfXTt1dGC8WT95OLpSbY-8" value="System Processes Payment for Account Balance/ Fine" style="html=1;align=center;verticalAlign=top;rounded=1;absoluteArcSize=1;arcSize=10;dashed=0;whiteSpace=wrap;fontFamily=Helvetica;fontSize=11;fontColor=default;labelBackgroundColor=default;" vertex="1" parent="1">
          <mxGeometry x="325" y="510" width="140" height="50" as="geometry" />
        </mxCell>
        <mxCell id="qfXTt1dGC8WT95OLpSbY-12" value="" style="edgeStyle=orthogonalEdgeStyle;html=1;verticalAlign=bottom;endArrow=open;endSize=8;strokeColor=#ff0000;rounded=0;" edge="1" parent="1">
          <mxGeometry relative="1" as="geometry">
            <mxPoint x="394.47" y="510" as="targetPoint" />
            <mxPoint x="394.97" y="480" as="sourcePoint" />
          </mxGeometry>
        </mxCell>
        <mxCell id="AuA3LCDAM3HW2qUU6d6c-1" value="Payment Processing did not go through sucsessfully.&amp;nbsp;" style="edgeStyle=orthogonalEdgeStyle;html=1;align=left;verticalAlign=bottom;endArrow=open;endSize=8;strokeColor=#ff0000;rounded=0;exitX=1;exitY=0.5;exitDx=0;exitDy=0;" edge="1" parent="1" source="AuA3LCDAM3HW2qUU6d6c-3">
          <mxGeometry x="-1" relative="1" as="geometry">
            <mxPoint x="469.47" y="648" as="targetPoint" />
            <mxPoint x="424.19000000000005" y="600" as="sourcePoint" />
            <mxPoint as="offset" />
          </mxGeometry>
        </mxCell>
        <mxCell id="AuA3LCDAM3HW2qUU6d6c-2" value="Payment Is processed sucsessfully." style="edgeStyle=orthogonalEdgeStyle;html=1;align=left;verticalAlign=top;endArrow=open;endSize=8;strokeColor=#ff0000;rounded=0;exitX=0;exitY=0.5;exitDx=0;exitDy=0;" edge="1" parent="1" source="AuA3LCDAM3HW2qUU6d6c-3">
          <mxGeometry x="0.3096" y="-88" relative="1" as="geometry">
            <mxPoint x="294.19" y="650" as="targetPoint" />
            <mxPoint x="344.19000000000005" y="600" as="sourcePoint" />
            <mxPoint x="3" y="-24" as="offset" />
          </mxGeometry>
        </mxCell>
        <mxCell id="AuA3LCDAM3HW2qUU6d6c-3" value="" style="rhombus;fontFamily=Helvetica;fontSize=11;fontColor=default;labelBackgroundColor=default;" vertex="1" parent="1">
          <mxGeometry x="380" y="590" width="30" height="30" as="geometry" />
        </mxCell>
        <mxCell id="AuA3LCDAM3HW2qUU6d6c-4" value="" style="edgeStyle=orthogonalEdgeStyle;html=1;verticalAlign=bottom;endArrow=open;endSize=8;strokeColor=#ff0000;rounded=0;" edge="1" parent="1">
          <mxGeometry relative="1" as="geometry">
            <mxPoint x="394.47" y="590" as="targetPoint" />
            <mxPoint x="394.97" y="560" as="sourcePoint" />
          </mxGeometry>
        </mxCell>
        <mxCell id="AuA3LCDAM3HW2qUU6d6c-5" value="Third Party processor displays recept for payment to Staff User.&amp;nbsp;" style="html=1;align=center;verticalAlign=top;rounded=1;absoluteArcSize=1;arcSize=10;dashed=0;whiteSpace=wrap;fontFamily=Helvetica;fontSize=11;fontColor=default;labelBackgroundColor=default;" vertex="1" parent="1">
          <mxGeometry x="230" y="650" width="140" height="50" as="geometry" />
        </mxCell>
        <mxCell id="AuA3LCDAM3HW2qUU6d6c-6" value="Notify Staff that payment failed and to try again/ check payment details." style="html=1;align=center;verticalAlign=top;rounded=1;absoluteArcSize=1;arcSize=10;dashed=0;whiteSpace=wrap;fontFamily=Helvetica;fontSize=11;fontColor=default;labelBackgroundColor=default;" vertex="1" parent="1">
          <mxGeometry x="420" y="650" width="140" height="50" as="geometry" />
        </mxCell>
        <mxCell id="AuA3LCDAM3HW2qUU6d6c-7" value="System automatically updates account balance and sends payment confirmation via email." style="html=1;align=center;verticalAlign=top;rounded=1;absoluteArcSize=1;arcSize=10;dashed=0;whiteSpace=wrap;fontFamily=Helvetica;fontSize=11;fontColor=default;labelBackgroundColor=default;" vertex="1" parent="1">
          <mxGeometry x="230" y="730" width="140" height="60" as="geometry" />
        </mxCell>
        <mxCell id="AuA3LCDAM3HW2qUU6d6c-8" value="" style="edgeStyle=orthogonalEdgeStyle;html=1;verticalAlign=bottom;endArrow=open;endSize=8;strokeColor=#ff0000;rounded=0;" edge="1" parent="1">
          <mxGeometry relative="1" as="geometry">
            <mxPoint x="299.47" y="730" as="targetPoint" />
            <mxPoint x="299.97" y="700" as="sourcePoint" />
          </mxGeometry>
        </mxCell>
        <mxCell id="AuA3LCDAM3HW2qUU6d6c-10" value="Payment Recipt is Printed for Customer and Library records." style="html=1;align=center;verticalAlign=top;rounded=1;absoluteArcSize=1;arcSize=10;dashed=0;whiteSpace=wrap;fontFamily=Helvetica;fontSize=11;fontColor=default;labelBackgroundColor=default;" vertex="1" parent="1">
          <mxGeometry x="230" y="820" width="140" height="50" as="geometry" />
        </mxCell>
        <mxCell id="AuA3LCDAM3HW2qUU6d6c-12" value="" style="edgeStyle=orthogonalEdgeStyle;html=1;verticalAlign=bottom;endArrow=open;endSize=8;strokeColor=#ff0000;rounded=0;" edge="1" parent="1">
          <mxGeometry relative="1" as="geometry">
            <mxPoint x="299.47" y="820" as="targetPoint" />
            <mxPoint x="299.97" y="790" as="sourcePoint" />
          </mxGeometry>
        </mxCell>
        <mxCell id="AuA3LCDAM3HW2qUU6d6c-13" value="" style="edgeStyle=orthogonalEdgeStyle;html=1;verticalAlign=bottom;endArrow=open;endSize=8;strokeColor=#ff0000;rounded=0;entryX=0;entryY=1;entryDx=0;entryDy=0;" edge="1" parent="1" target="1zwvTxJgqy0ecwBdv9ZW-1">
          <mxGeometry relative="1" as="geometry">
            <mxPoint x="299.97" y="910" as="targetPoint" />
            <mxPoint x="299.47" y="870" as="sourcePoint" />
            <Array as="points">
              <mxPoint x="299" y="900" />
              <mxPoint x="374" y="900" />
            </Array>
          </mxGeometry>
        </mxCell>
        <mxCell id="AuA3LCDAM3HW2qUU6d6c-14" value="" style="edgeStyle=orthogonalEdgeStyle;html=1;verticalAlign=bottom;endArrow=open;endSize=8;strokeColor=#ff0000;rounded=0;entryX=1;entryY=0.5;entryDx=0;entryDy=0;" edge="1" parent="1" target="1zwvTxJgqy0ecwBdv9ZW-1">
          <mxGeometry relative="1" as="geometry">
            <mxPoint x="471" y="920" as="targetPoint" />
            <mxPoint x="470" y="700" as="sourcePoint" />
            <Array as="points">
              <mxPoint x="470" y="701" />
              <mxPoint x="460" y="701" />
              <mxPoint x="460" y="915" />
            </Array>
          </mxGeometry>
        </mxCell>
        <mxCell id="1zwvTxJgqy0ecwBdv9ZW-1" value="" style="ellipse;html=1;shape=endState;fillColor=#000000;strokeColor=#ff0000;" vertex="1" parent="1">
          <mxGeometry x="370" y="900" width="30" height="30" as="geometry" />
        </mxCell>
        <mxCell id="2G8efTeZgY0BZKYh8nCG-1" value="Staff Searches Users Account and displays Account Information" style="shape=mxgraph.uml25.action;html=1;align=center;verticalAlign=middle;absoluteArcSize=1;arcSize=10;dashed=0;spacingLeft=10;flipH=1;whiteSpace=wrap;fontFamily=Helvetica;fontSize=11;fontColor=default;labelBackgroundColor=default;" vertex="1" parent="1">
          <mxGeometry x="330" y="260" width="110" height="60" as="geometry" />
        </mxCell>
        <mxCell id="2G8efTeZgY0BZKYh8nCG-2" value="Account Details" style="text;verticalAlign=middle;align=right;html=1;fontFamily=Helvetica;fontSize=11;fontColor=default;labelBackgroundColor=default;" vertex="1" parent="2G8efTeZgY0BZKYh8nCG-1">
          <mxGeometry x="-60" width="60" height="60" as="geometry" />
        </mxCell>
      </root>
    </mxGraphModel>
  </diagram>
  <diagram id="PFlkKO0_nrMkGZFe811J" name="Add abd Edit Catalog Items ">
    <mxGraphModel dx="1518" dy="731" grid="1" gridSize="10" guides="1" tooltips="1" connect="1" arrows="1" fold="1" page="1" pageScale="1" pageWidth="850" pageHeight="1100" math="0" shadow="0">
      <root>
        <mxCell id="0" />
        <mxCell id="1" parent="0" />
        <mxCell id="jJ0t3Z11z_zEPmo8ytT2-1" value="" style="ellipse;html=1;shape=startState;fillColor=#000000;strokeColor=#ff0000;" vertex="1" parent="1">
          <mxGeometry x="380" y="90" width="30" height="30" as="geometry" />
        </mxCell>
        <mxCell id="DYGPQJ7t4JM7AelLUX7R-1" value="" style="edgeStyle=orthogonalEdgeStyle;html=1;verticalAlign=bottom;endArrow=open;endSize=8;strokeColor=#ff0000;rounded=0;" edge="1" parent="1">
          <mxGeometry relative="1" as="geometry">
            <mxPoint x="394.5" y="170" as="targetPoint" />
            <mxPoint x="394.5" y="110" as="sourcePoint" />
          </mxGeometry>
        </mxCell>
        <mxCell id="QT1sBfFlf2Ws2yPNPiOg-1" value="Add and Edit Catalog Items" style="shape=note2;boundedLbl=1;whiteSpace=wrap;html=1;size=25;verticalAlign=top;align=center;" vertex="1" parent="1">
          <mxGeometry x="150" y="50" width="120" height="60" as="geometry" />
        </mxCell>
        <mxCell id="KPPzfQuKTT0JZ0TFUrQS-1" value="Staff Log into system and selects Catalog icon" style="html=1;align=center;verticalAlign=top;rounded=1;absoluteArcSize=1;arcSize=10;dashed=0;whiteSpace=wrap;fontFamily=Helvetica;fontSize=11;fontColor=default;labelBackgroundColor=default;" vertex="1" parent="1">
          <mxGeometry x="325" y="170" width="140" height="40" as="geometry" />
        </mxCell>
        <mxCell id="KPPzfQuKTT0JZ0TFUrQS-2" value="" style="edgeStyle=orthogonalEdgeStyle;html=1;verticalAlign=bottom;endArrow=open;endSize=8;strokeColor=#ff0000;rounded=0;" edge="1" parent="1">
          <mxGeometry relative="1" as="geometry">
            <mxPoint x="394.5" y="250" as="targetPoint" />
            <mxPoint x="395" y="210" as="sourcePoint" />
          </mxGeometry>
        </mxCell>
        <mxCell id="KPPzfQuKTT0JZ0TFUrQS-3" value="Update Confirmation displayed to staff." style="html=1;align=center;verticalAlign=top;rounded=1;absoluteArcSize=1;arcSize=10;dashed=0;whiteSpace=wrap;fontFamily=Helvetica;fontSize=11;fontColor=default;labelBackgroundColor=default;" vertex="1" parent="1">
          <mxGeometry x="140" y="650" width="140" height="40" as="geometry" />
        </mxCell>
        <mxCell id="KPPzfQuKTT0JZ0TFUrQS-4" value="" style="edgeStyle=orthogonalEdgeStyle;html=1;verticalAlign=bottom;endArrow=open;endSize=8;strokeColor=#ff0000;rounded=0;" edge="1" parent="1">
          <mxGeometry relative="1" as="geometry">
            <mxPoint x="394.5" y="330" as="targetPoint" />
            <mxPoint x="395" y="290" as="sourcePoint" />
          </mxGeometry>
        </mxCell>
        <mxCell id="lUKcpuRilUDZiuZbmXLy-1" value="Catalog Update Fails to complete Sucsessfully" style="edgeStyle=orthogonalEdgeStyle;html=1;align=left;verticalAlign=bottom;endArrow=open;endSize=8;strokeColor=#ff0000;rounded=0;exitX=1;exitY=0.5;exitDx=0;exitDy=0;" edge="1" parent="1" source="lUKcpuRilUDZiuZbmXLy-3">
          <mxGeometry x="-1" relative="1" as="geometry">
            <mxPoint x="482.39" y="478" as="targetPoint" />
            <mxPoint x="437.11" y="430" as="sourcePoint" />
            <mxPoint as="offset" />
          </mxGeometry>
        </mxCell>
        <mxCell id="lUKcpuRilUDZiuZbmXLy-2" value="Catalog Updates Sucsessfully." style="edgeStyle=orthogonalEdgeStyle;html=1;align=left;verticalAlign=top;endArrow=open;endSize=8;strokeColor=#ff0000;rounded=0;exitX=0;exitY=0.5;exitDx=0;exitDy=0;" edge="1" parent="1" source="lUKcpuRilUDZiuZbmXLy-3">
          <mxGeometry x="0.1366" y="-101" relative="1" as="geometry">
            <mxPoint x="307.11" y="480" as="targetPoint" />
            <mxPoint x="357.11" y="430" as="sourcePoint" />
            <mxPoint x="3" y="-24" as="offset" />
          </mxGeometry>
        </mxCell>
        <mxCell id="lUKcpuRilUDZiuZbmXLy-3" value="" style="rhombus;fontFamily=Helvetica;fontSize=11;fontColor=default;labelBackgroundColor=default;" vertex="1" parent="1">
          <mxGeometry x="380" y="410" width="30" height="30" as="geometry" />
        </mxCell>
        <mxCell id="lUKcpuRilUDZiuZbmXLy-5" value="" style="edgeStyle=orthogonalEdgeStyle;html=1;verticalAlign=bottom;endArrow=open;endSize=8;strokeColor=#ff0000;rounded=0;" edge="1" parent="1">
          <mxGeometry relative="1" as="geometry">
            <mxPoint x="394.5" y="410" as="targetPoint" />
            <mxPoint x="395" y="370" as="sourcePoint" />
          </mxGeometry>
        </mxCell>
        <mxCell id="lUKcpuRilUDZiuZbmXLy-6" value="System notifys staff of failure and to attempt chnage again." style="html=1;align=center;verticalAlign=top;rounded=1;absoluteArcSize=1;arcSize=10;dashed=0;whiteSpace=wrap;fontFamily=Helvetica;fontSize=11;fontColor=default;labelBackgroundColor=default;" vertex="1" parent="1">
          <mxGeometry x="425" y="480" width="140" height="50" as="geometry" />
        </mxCell>
        <mxCell id="lUKcpuRilUDZiuZbmXLy-8" value="" style="edgeStyle=orthogonalEdgeStyle;html=1;verticalAlign=bottom;endArrow=open;endSize=8;strokeColor=#ff0000;rounded=0;entryX=1;entryY=0.5;entryDx=0;entryDy=0;" edge="1" parent="1" target="KPPzfQuKTT0JZ0TFUrQS-5">
          <mxGeometry relative="1" as="geometry">
            <mxPoint x="480" y="570" as="targetPoint" />
            <mxPoint x="480.5" y="530" as="sourcePoint" />
            <Array as="points">
              <mxPoint x="481" y="531" />
              <mxPoint x="670" y="531" />
              <mxPoint x="670" y="350" />
            </Array>
          </mxGeometry>
        </mxCell>
        <mxCell id="DSkDTg9_0InSOMIGo6cX-1" value="&lt;span style=&quot;font-size: 11px;&quot;&gt;System Automatically Updates Catalog and and sends new change to Inventory DB&lt;/span&gt;" style="html=1;shape=mxgraph.infographic.ribbonSimple;notch1=0;notch2=20;align=center;verticalAlign=middle;fontSize=14;fontStyle=0;fillColor=#FFFFFF;whiteSpace=wrap;fontFamily=Helvetica;fontColor=default;labelBackgroundColor=default;" vertex="1" parent="1">
          <mxGeometry x="170" y="480" width="220" height="50" as="geometry" />
        </mxCell>
        <mxCell id="omKIF_mqVG3xSlnuuXhp-1" value="Inventory Database Is not updated or changed." style="edgeStyle=orthogonalEdgeStyle;html=1;align=left;verticalAlign=bottom;endArrow=open;endSize=8;strokeColor=#ff0000;rounded=0;exitX=1;exitY=0.5;exitDx=0;exitDy=0;" edge="1" parent="1" source="omKIF_mqVG3xSlnuuXhp-3">
          <mxGeometry x="-1" relative="1" as="geometry">
            <mxPoint x="379.5" y="648" as="targetPoint" />
            <mxPoint x="334.22" y="600" as="sourcePoint" />
            <mxPoint as="offset" />
          </mxGeometry>
        </mxCell>
        <mxCell id="omKIF_mqVG3xSlnuuXhp-2" value="Database Updates Sucsessfully&amp;nbsp;" style="edgeStyle=orthogonalEdgeStyle;html=1;align=left;verticalAlign=top;endArrow=open;endSize=8;strokeColor=#ff0000;rounded=0;exitX=0;exitY=0.5;exitDx=0;exitDy=0;" edge="1" parent="1" source="omKIF_mqVG3xSlnuuXhp-3">
          <mxGeometry x="0.0701" y="-79" relative="1" as="geometry">
            <mxPoint x="204.22" y="650" as="targetPoint" />
            <mxPoint x="254.22000000000003" y="600" as="sourcePoint" />
            <mxPoint x="4" y="-25" as="offset" />
          </mxGeometry>
        </mxCell>
        <mxCell id="omKIF_mqVG3xSlnuuXhp-3" value="" style="rhombus;fontFamily=Helvetica;fontSize=11;fontColor=default;labelBackgroundColor=default;" vertex="1" parent="1">
          <mxGeometry x="279.5" y="570" width="30" height="30" as="geometry" />
        </mxCell>
        <mxCell id="omKIF_mqVG3xSlnuuXhp-5" value="" style="edgeStyle=orthogonalEdgeStyle;html=1;verticalAlign=bottom;endArrow=open;endSize=8;strokeColor=#ff0000;rounded=0;" edge="1" parent="1">
          <mxGeometry relative="1" as="geometry">
            <mxPoint x="294" y="570" as="targetPoint" />
            <mxPoint x="294.5" y="530" as="sourcePoint" />
          </mxGeometry>
        </mxCell>
        <mxCell id="omKIF_mqVG3xSlnuuXhp-6" value="Staff selects Add, Delete, Or Edit item option." style="html=1;align=center;verticalAlign=top;rounded=1;absoluteArcSize=1;arcSize=10;dashed=0;whiteSpace=wrap;fontFamily=Helvetica;fontSize=11;fontColor=default;labelBackgroundColor=default;" vertex="1" parent="1">
          <mxGeometry x="335" y="250" width="140" height="40" as="geometry" />
        </mxCell>
        <mxCell id="omKIF_mqVG3xSlnuuXhp-7" value="System sends failure notification and informs staff to try process again." style="html=1;align=center;verticalAlign=top;rounded=1;absoluteArcSize=1;arcSize=10;dashed=0;whiteSpace=wrap;fontFamily=Helvetica;fontSize=11;fontColor=default;labelBackgroundColor=default;" vertex="1" parent="1">
          <mxGeometry x="320" y="650" width="140" height="50" as="geometry" />
        </mxCell>
        <mxCell id="omKIF_mqVG3xSlnuuXhp-8" value="" style="edgeStyle=orthogonalEdgeStyle;html=1;verticalAlign=bottom;endArrow=open;endSize=8;strokeColor=#ff0000;rounded=0;entryX=1;entryY=0.5;entryDx=0;entryDy=0;" edge="1" parent="1" target="HU2gUFGAOU5tPp71Kz7s-1">
          <mxGeometry relative="1" as="geometry">
            <mxPoint x="380" y="740" as="targetPoint" />
            <mxPoint x="380.5" y="700" as="sourcePoint" />
            <Array as="points">
              <mxPoint x="381" y="701" />
              <mxPoint x="380" y="765" />
            </Array>
          </mxGeometry>
        </mxCell>
        <mxCell id="KPPzfQuKTT0JZ0TFUrQS-5" value="Staff makes catalog changes and selects Submit" style="html=1;align=center;verticalAlign=top;rounded=1;absoluteArcSize=1;arcSize=10;dashed=0;whiteSpace=wrap;fontFamily=Helvetica;fontSize=11;fontColor=default;labelBackgroundColor=default;" vertex="1" parent="1">
          <mxGeometry x="325" y="330" width="140" height="40" as="geometry" />
        </mxCell>
        <mxCell id="omKIF_mqVG3xSlnuuXhp-13" value="" style="edgeStyle=orthogonalEdgeStyle;html=1;verticalAlign=bottom;endArrow=open;endSize=8;strokeColor=#ff0000;rounded=0;entryX=0;entryY=0.5;entryDx=0;entryDy=0;" edge="1" parent="1" target="HU2gUFGAOU5tPp71Kz7s-1">
          <mxGeometry relative="1" as="geometry">
            <mxPoint x="200" y="730" as="targetPoint" />
            <mxPoint x="200.5" y="690" as="sourcePoint" />
            <Array as="points">
              <mxPoint x="201" y="765" />
            </Array>
          </mxGeometry>
        </mxCell>
        <mxCell id="HU2gUFGAOU5tPp71Kz7s-1" value="" style="ellipse;html=1;shape=endState;fillColor=#000000;strokeColor=#ff0000;" vertex="1" parent="1">
          <mxGeometry x="270" y="750" width="30" height="30" as="geometry" />
        </mxCell>
      </root>
    </mxGraphModel>
  </diagram>
</mxfile>
